Shantell SemiOrganic Wght-Style_5.ufo
<glyph name="comma" format="2">
  <advance width="307.0"/>
  <unicode hex="002C"/>
  <outline>
    <contour>
      <point x="119.0" y="-127.0" type="curve" smooth="yes"/>
      <point x="141.0" y="-127.0"/>
      <point x="161.0" y="-115.0"/>
      <point x="171.0" y="-97.0" type="curve" smooth="yes"/>
      <point x="204.0" y="-42.0"/>
      <point x="229.0" y="43.0"/>
      <point x="233.0" y="111.0" type="curve" smooth="yes"/>
      <point x="233.0" y="112.0"/>
      <point x="233.0" y="114.0"/>
      <point x="233.0" y="115.0" type="curve" smooth="yes"/>
      <point x="233.0" y="148.0"/>
      <point x="206.0" y="175.0"/>
      <point x="173.0" y="175.0" type="curve" smooth="yes"/>
      <point x="141.0" y="175.0"/>
      <point x="115.0" y="150.0"/>
      <point x="113.0" y="118.0" type="curve" smooth="yes"/>
      <point x="110.0" y="66.0"/>
      <point x="92.0" y="6.0"/>
      <point x="68.0" y="-36.0" type="curve" smooth="yes"/>
      <point x="62.0" y="-45.0"/>
      <point x="59.0" y="-55.0"/>
      <point x="59.0" y="-67.0" type="curve" smooth="yes"/>
      <point x="59.0" y="-100.0"/>
      <point x="86.0" y="-127.0"/>
    </contour>
  </outline>
</glyph>
<glyph name="hyphen" format="2">
  <advance width="519.0"/>
  <unicode hex="002D"/>
  <outline>
    <contour>
      <point x="152.0" y="189.0" type="curve" smooth="yes"/>
      <point x="221.0" y="215.0"/>
      <point x="296.0" y="239.0"/>
      <point x="389.0" y="245.0" type="curve" smooth="yes"/>
      <point x="420.0" y="247.0"/>
      <point x="445.0" y="273.0"/>
      <point x="445.0" y="305.0" type="curve" smooth="yes"/>
      <point x="445.0" y="338.0"/>
      <point x="418.0" y="365.0"/>
      <point x="385.0" y="365.0" type="curve" smooth="yes"/>
      <point x="320.0" y="365.0"/>
      <point x="210.0" y="335.0"/>
      <point x="139.0" y="311.0" type="curve" smooth="yes"/>
      <point x="82.0" y="287.0"/>
      <point x="74.0" y="263.0"/>
      <point x="74.0" y="230.0" type="curve" smooth="yes"/>
      <point x="74.0" y="194.0"/>
      <point x="111.0" y="173.0"/>
    </contour>
  </outline>
</glyph>
<glyph name="period" format="2">
  <advance width="335.0"/>
  <unicode hex="002E"/>
  <outline>
    <contour>
      <point x="185.8" y="-14.8" type="curve" smooth="yes"/>
      <point x="243.83636363636" y="-14.8"/>
      <point x="272.8" y="17.6"/>
      <point x="272.8" y="53.8" type="curve" smooth="yes"/>
      <point x="272.8" y="117.6"/>
      <point x="234.17297297298" y="181.4"/>
      <point x="141.4" y="181.4" type="curve" smooth="yes"/>
      <point x="94.6" y="181.4"/>
      <point x="56.599999999999994" y="150.2"/>
      <point x="56.599999999999994" y="95.0" type="curve" smooth="yes"/>
      <point x="56.599999999999994" y="23.6"/>
      <point x="102.2" y="-14.8"/>
    </contour>
  </outline>
</glyph>
<glyph name="zero" format="2">
  <advance width="700.0"/>
  <unicode hex="0030"/>
  <outline>
    <contour>
      <point x="301.0" y="501.6" type="curve" smooth="yes"/>
      <point x="221.0" y="445.6"/>
      <point x="184.8" y="370.2"/>
      <point x="184.8" y="270.0" type="curve" smooth="yes"/>
      <point x="184.8" y="194.2"/>
      <point x="226.2" y="139.0"/>
      <point x="315.4" y="139.0" type="curve" smooth="yes"/>
      <point x="413.6" y="139.0"/>
      <point x="514.2" y="237.2"/>
      <point x="514.2" y="417.0" type="curve" smooth="yes"/>
      <point x="514.2" y="497.8"/>
      <point x="485.85" y="560.4"/>
      <point x="400.0" y="560.4" type="curve" smooth="yes"/>
      <point x="321.6612021858" y="560.4"/>
      <point x="277.85600412364" y="524.69629175248"/>
      <point x="236.6" y="483.2" type="curve" smooth="yes"/>
      <point x="219.8" y="468.2"/>
      <point x="200.0" y="457.6"/>
      <point x="181.4" y="457.6" type="curve" smooth="yes"/>
      <point x="125.4" y="457.6"/>
      <point x="100.8" y="509.4"/>
      <point x="100.8" y="543.8" type="curve" smooth="yes"/>
      <point x="100.8" y="604.29484536082"/>
      <point x="214.60763358778001" y="711.0"/>
      <point x="400.0" y="711.0" type="curve" smooth="yes"/>
      <point x="585.6" y="711.0"/>
      <point x="666.0" y="599.0"/>
      <point x="666.0" y="417.0" type="curve" smooth="yes"/>
      <point x="666.0" y="128.0"/>
      <point x="488.06344410876" y="-11.0"/>
      <point x="317.0" y="-11.0" type="curve" smooth="yes"/>
      <point x="149.31578947368" y="-11.0"/>
      <point x="33.0" y="74.0"/>
      <point x="33.0" y="270.0" type="curve" smooth="yes"/>
      <point x="33.0" y="496.59313984168"/>
      <point x="198.0" y="625.0"/>
      <point x="269.8" y="625.0" type="curve" smooth="yes"/>
      <point x="312.328" y="625.0"/>
      <point x="329.4" y="608.0"/>
      <point x="329.4" y="560.0" type="curve" smooth="yes"/>
      <point x="329.4" y="539.8"/>
      <point x="319.729993852" y="514.74555077378"/>
    </contour>
  </outline>
</glyph>
<glyph name="one" format="2">
  <advance width="700.0"/>
  <unicode hex="0031"/>
  <outline>
    <contour>
      <point x="157.0" y="145.0" type="curve" smooth="yes"/>
      <point x="236.8" y="145.0"/>
      <point x="418.34468085104" y="152.4"/>
      <point x="531.4" y="152.4" type="curve" smooth="yes"/>
      <point x="614.74545454546" y="152.4"/>
      <point x="652.4" y="118.2"/>
      <point x="653.8" y="68.6" type="curve" smooth="yes"/>
      <point x="655.2" y="28.8"/>
      <point x="627.93870967742" y="0.0"/>
      <point x="551.2" y="0.0" type="curve" smooth="yes"/>
      <point x="355.2175257732" y="0.0"/>
      <point x="250.4" y="-9.2"/>
      <point x="189.2" y="-9.2" type="curve" smooth="yes"/>
      <point x="79.4" y="-9.2"/>
      <point x="54.199999999999996" y="36.7044247788"/>
      <point x="54.199999999999996" y="82.0" type="curve" smooth="yes"/>
      <point x="54.199999999999996" y="119.62857142856001"/>
      <point x="84.4" y="145.0"/>
    </contour>
    <contour>
      <point x="124.0" y="611.2" type="curve" smooth="yes"/>
      <point x="200.6" y="617.6"/>
      <point x="269.0" y="645.6"/>
      <point x="320.8" y="687.0" type="curve" smooth="yes"/>
      <point x="339.6" y="702.8"/>
      <point x="360.4" y="714.2"/>
      <point x="388.6" y="714.2" type="curve" smooth="yes"/>
      <point x="451.2" y="714.2"/>
      <point x="495.53906364448" y="657.94602647288"/>
      <point x="478.2" y="595.8" type="curve" smooth="yes"/>
      <point x="439.8" y="443.6"/>
      <point x="430.2" y="240.0"/>
      <point x="430.2" y="142.60000000000002" type="curve" smooth="yes"/>
      <point x="430.2" y="108.60000000000001"/>
      <point x="409.6" y="82.4"/>
      <point x="372.6" y="82.4" type="curve" smooth="yes"/>
      <point x="314.4" y="82.4"/>
      <point x="278.4" y="128.60000000000002"/>
      <point x="278.4" y="185.8" type="curve" smooth="yes"/>
      <point x="278.4" y="309.6"/>
      <point x="295.8" y="443.8"/>
      <point x="318.6" y="559.8" type="curve"/>
      <point x="348.4" y="534.6" type="line"/>
      <point x="298.194458226" y="495.71838772968"/>
      <point x="220.2" y="470.2"/>
      <point x="151.0" y="470.2" type="curve" smooth="yes"/>
      <point x="90.19999999999999" y="470.2"/>
      <point x="60.599999999999994" y="510.38350515464"/>
      <point x="60.599999999999994" y="552.4" type="curve" smooth="yes"/>
      <point x="60.599999999999994" y="581.94893617024"/>
      <point x="79.6" y="606.4"/>
    </contour>
  </outline>
</glyph>
<glyph name="two" format="2">
  <advance width="700.0"/>
  <unicode hex="0032"/>
  <outline>
    <contour>
      <point x="110.19999999999999" y="612.8" type="curve" smooth="yes"/>
      <point x="200.42954351956" y="676.96755718418"/>
      <point x="289.12244897962" y="713.0"/>
      <point x="378.0" y="713.0" type="curve" smooth="yes"/>
      <point x="535.2" y="713.0"/>
      <point x="596.0" y="626.52941176472"/>
      <point x="596.0" y="503.0" type="curve" smooth="yes"/>
      <point x="596.0" y="399.14070981208"/>
      <point x="541.7550555905" y="287.40684920288"/>
      <point x="263.6" y="106.80000000000001" type="curve"/>
      <point x="226.8" y="148.0" type="line"/>
      <point x="251.4" y="140.4"/>
      <point x="275.6" y="138.4"/>
      <point x="299.4" y="138.4" type="curve" smooth="yes"/>
      <point x="358.0" y="138.4"/>
      <point x="444.8" y="152.4"/>
      <point x="546.6" y="152.4" type="curve" smooth="yes"/>
      <point x="639.4" y="152.4"/>
      <point x="670.0" y="113.83773584904"/>
      <point x="670.0" y="64.4" type="curve" smooth="yes"/>
      <point x="670.0" y="29.458823529440004"/>
      <point x="642.92" y="0.0"/>
      <point x="593.0" y="0.0" type="curve" smooth="yes"/>
      <point x="368.72565078094" y="0.0"/>
      <point x="241.29603524232" y="-20.0"/>
      <point x="164.2" y="-20.0" type="curve" smooth="yes"/>
      <point x="95.6" y="-20.0"/>
      <point x="63.599999999999994" y="23.200000000000003"/>
      <point x="63.599999999999994" y="86.4" type="curve" smooth="yes"/>
      <point x="63.599999999999994" y="123.4"/>
      <point x="77.4" y="141.0"/>
      <point x="94.6" y="152.2" type="curve" smooth="yes"/>
      <point x="348.23065086902" y="314.26613261436"/>
      <point x="444.2" y="409.19905660375997"/>
      <point x="444.2" y="503.0" type="curve" smooth="yes"/>
      <point x="444.2" y="538.31223021582"/>
      <point x="423.6" y="560.0"/>
      <point x="378.0" y="560.0" type="curve" smooth="yes"/>
      <point x="258.93157894736" y="560.0"/>
      <point x="191.50833333334" y="470.4"/>
      <point x="144.8" y="470.4" type="curve" smooth="yes"/>
      <point x="104.4" y="470.4"/>
      <point x="72.19999999999999" y="506.6"/>
      <point x="72.19999999999999" y="548.0" type="curve" smooth="yes"/>
      <point x="72.19999999999999" y="576.0"/>
      <point x="81.8" y="592.4"/>
    </contour>
  </outline>
</glyph>
<glyph name="three" format="2">
  <advance width="700.0"/>
  <unicode hex="0033"/>
  <outline>
    <contour>
      <point x="372.0" y="712.0" type="curve" smooth="yes"/>
      <point x="526.8" y="712.0"/>
      <point x="600.4" y="643.37647058824"/>
      <point x="600.4" y="538.0" type="curve" smooth="yes"/>
      <point x="600.4" y="466.4699453552"/>
      <point x="557.21486774312" y="389.46881369208"/>
      <point x="402.0" y="363.8" type="curve"/>
      <point x="397.4" y="398.4" type="line"/>
      <point x="599.60026246116" y="397.2000026378"/>
      <point x="656.0" y="324.2185903678"/>
      <point x="656.0" y="224.0" type="curve" smooth="yes"/>
      <point x="656.0" y="62.973913043479996"/>
      <point x="489.0" y="-12.0"/>
      <point x="269.0" y="-12.0" type="curve" smooth="yes"/>
      <point x="110.36" y="-12.0"/>
      <point x="63.199999999999996" y="42.4"/>
      <point x="63.199999999999996" y="113.2" type="curve" smooth="yes"/>
      <point x="63.199999999999996" y="152.26896551724002"/>
      <point x="79.22666666664" y="183.8"/>
      <point x="117.4" y="183.8" type="curve" smooth="yes"/>
      <point x="157.0" y="183.8"/>
      <point x="159.88872180447999" y="139.8"/>
      <point x="244.8" y="139.8" type="curve" smooth="yes"/>
      <point x="397.4" y="139.8"/>
      <point x="504.2" y="172.80245398774"/>
      <point x="504.2" y="232.8" type="curve" smooth="yes"/>
      <point x="504.2" y="276.94285714286"/>
      <point x="454.20014671702" y="289.9999989212"/>
      <point x="293.4" y="290.2" type="curve" smooth="yes"/>
      <point x="244.4" y="290.2"/>
      <point x="219.0" y="331.6"/>
      <point x="219.0" y="375.0" type="curve" smooth="yes"/>
      <point x="219.0" y="398.8"/>
      <point x="230.4" y="416.0"/>
      <point x="258.6" y="421.8" type="curve" smooth="yes"/>
      <point x="375.18819461576" y="447.04797117656"/>
      <point x="442.2" y="478.9304964539"/>
      <point x="442.2" y="530.0" type="curve" smooth="yes"/>
      <point x="442.2" y="558.97142857142"/>
      <point x="422.2" y="567.0"/>
      <point x="380.8" y="567.0" type="curve" smooth="yes"/>
      <point x="215.8" y="567.0"/>
      <point x="179.54285714288" y="494.6"/>
      <point x="124.0" y="494.6" type="curve" smooth="yes"/>
      <point x="96.8" y="494.6"/>
      <point x="54.8" y="524.8"/>
      <point x="54.8" y="564.8" type="curve" smooth="yes"/>
      <point x="54.8" y="623.39354838712"/>
      <point x="200.45046548962" y="712.0"/>
    </contour>
  </outline>
</glyph>
<glyph name="four" format="2">
  <advance width="700.0"/>
  <unicode hex="0034"/>
  <outline>
    <contour>
      <point x="337.2" y="157.0" type="curve" smooth="yes"/>
      <point x="337.2" y="307.15064935064004"/>
      <point x="382.6" y="448.0"/>
      <point x="382.6" y="555.8" type="curve" smooth="yes"/>
      <point x="382.6" y="578.4"/>
      <point x="379.2" y="595.2"/>
      <point x="368.4" y="620.4" type="curve"/>
      <point x="416.4" y="574.2" type="line"/>
      <point x="312.8" y="509.4"/>
      <point x="225.6" y="393.0"/>
      <point x="171.6" y="258.0" type="curve"/>
      <point x="124.4" y="321.6" type="line"/>
      <point x="157.8" y="308.2"/>
      <point x="165.6" y="305.6"/>
      <point x="189.4" y="305.6" type="curve" smooth="yes"/>
      <point x="314.8" y="305.6"/>
      <point x="418.2" y="351.0"/>
      <point x="587.6" y="351.0" type="curve" smooth="yes"/>
      <point x="636.2" y="351.0"/>
      <point x="673.4" y="306.2"/>
      <point x="673.4" y="257.0" type="curve" smooth="yes"/>
      <point x="673.4" y="223.4"/>
      <point x="656.2" y="198.0"/>
      <point x="613.6" y="198.0" type="curve" smooth="yes"/>
      <point x="413.0" y="198.0"/>
      <point x="298.0" y="151.6"/>
      <point x="139.2" y="151.6" type="curve" smooth="yes"/>
      <point x="72.0" y="151.6"/>
      <point x="28.599999999999994" y="203.0"/>
      <point x="28.599999999999994" y="250.0" type="curve" smooth="yes"/>
      <point x="28.599999999999994" y="294.1483870968"/>
      <point x="35.96176350536" y="341.8701183836"/>
      <point x="79.8" y="415.4" type="curve" smooth="yes"/>
      <point x="184.6" y="599.2"/>
      <point x="343.0" y="715.0"/>
      <point x="419.6" y="715.0" type="curve" smooth="yes"/>
      <point x="502.0" y="715.0"/>
      <point x="539.2" y="647.0"/>
      <point x="539.2" y="573.8" type="curve" smooth="yes"/>
      <point x="539.2" y="422.2"/>
      <point x="490.6" y="309.04771084336"/>
      <point x="490.6" y="148.0" type="curve" smooth="yes"/>
      <point x="490.6" y="98.0"/>
      <point x="500.6" y="76.2"/>
      <point x="500.6" y="49.0" type="curve" smooth="yes"/>
      <point x="500.6" y="11.4"/>
      <point x="469.4" y="-11.0"/>
      <point x="422.6" y="-11.0" type="curve" smooth="yes"/>
      <point x="361.4" y="-11.0"/>
      <point x="337.2" y="39.0"/>
    </contour>
  </outline>
</glyph>
<glyph name="five" format="2">
  <advance width="700.0"/>
  <unicode hex="0035"/>
  <outline>
    <contour>
      <point x="599.0" y="564.6" type="curve" smooth="yes"/>
      <point x="440.47431421446" y="564.6"/>
      <point x="366.72245089088" y="545.64487512474"/>
      <point x="180.0" y="548.6" type="curve"/>
      <point x="248.4" y="595.6" type="line"/>
      <point x="232.6" y="563.6"/>
      <point x="224.4" y="537.4"/>
      <point x="224.4" y="511.4" type="curve" smooth="yes"/>
      <point x="224.4" y="487.4"/>
      <point x="232.3497140144" y="481.53347724048"/>
      <point x="389.0" y="455.2" type="curve" smooth="yes"/>
      <point x="595.9887202257801" y="417.87288373178"/>
      <point x="641.0" y="361.2772277228"/>
      <point x="641.0" y="254.2" type="curve" smooth="yes"/>
      <point x="641.0" y="99.68695652176"/>
      <point x="487.0867208672" y="-12.0"/>
      <point x="252.0" y="-12.0" type="curve" smooth="yes"/>
      <point x="138.30857142861998" y="-12.0"/>
      <point x="86.2" y="36.8"/>
      <point x="86.2" y="110.0" type="curve" smooth="yes"/>
      <point x="86.2" y="148.6"/>
      <point x="105.6" y="179.0"/>
      <point x="145.2" y="179.0" type="curve" smooth="yes"/>
      <point x="179.96989247311998" y="179.0"/>
      <point x="181.0731182796" y="137.0"/>
      <point x="242.2" y="137.0" type="curve" smooth="yes"/>
      <point x="352.42456140352" y="137.0"/>
      <point x="480.4" y="178.63478260872"/>
      <point x="480.4" y="251.8" type="curve" smooth="yes"/>
      <point x="480.4" y="285.6"/>
      <point x="455.7940827808" y="304.56979275725996"/>
      <point x="369.0" y="320.4" type="curve" smooth="yes"/>
      <point x="108.19999999999999" y="368.0"/>
      <point x="69.4" y="396.4"/>
      <point x="69.4" y="502.2" type="curve" smooth="yes"/>
      <point x="69.4" y="539.2"/>
      <point x="78.4" y="587.0"/>
      <point x="97.8" y="645.8" type="curve" smooth="yes"/>
      <point x="109.19999999999999" y="683.0"/>
      <point x="125.0" y="700.0"/>
      <point x="159.2" y="700.0" type="curve" smooth="yes"/>
      <point x="339.78909095718" y="699.45371163776"/>
      <point x="404.7905303415" y="716.0"/>
      <point x="540.2" y="716.0" type="curve" smooth="yes"/>
      <point x="618.79090909088" y="716.0"/>
      <point x="660.00306348144" y="668.8602484688"/>
      <point x="657.4" y="617.4" type="curve" smooth="yes"/>
      <point x="656.4257873010399" y="585.75413013984"/>
      <point x="633.0" y="564.6"/>
    </contour>
  </outline>
</glyph>
<glyph name="six" format="2">
  <advance width="700.0"/>
  <unicode hex="0036"/>
  <outline>
    <contour>
      <point x="457.8" y="565.8" type="curve" smooth="yes"/>
      <point x="305.81405599704" y="457.23594702998"/>
      <point x="194.4" y="353.06363636364"/>
      <point x="194.4" y="243.0" type="curve" smooth="yes"/>
      <point x="194.4" y="164.36202531648001"/>
      <point x="263.07372148372" y="139.0"/>
      <point x="359.0" y="139.0" type="curve" smooth="yes"/>
      <point x="447.80247381878" y="139.0"/>
      <point x="509.4" y="172.13167701864"/>
      <point x="509.4" y="224.0" type="curve" smooth="yes"/>
      <point x="509.4" y="258.49898989897997"/>
      <point x="479.81622819162" y="293.4"/>
      <point x="394.4" y="293.4" type="curve" smooth="yes"/>
      <point x="297.50863958738" y="293.4"/>
      <point x="275.98297872344" y="269.8"/>
      <point x="231.6" y="269.8" type="curve" smooth="yes"/>
      <point x="194.6" y="269.8"/>
      <point x="182.4" y="287.4"/>
      <point x="182.4" y="311.8" type="curve" smooth="yes"/>
      <point x="182.4" y="352.96850393704"/>
      <point x="275.47642276422" y="425.6"/>
      <point x="431.2" y="425.6" type="curve" smooth="yes"/>
      <point x="575.73936651584" y="425.6"/>
      <point x="663.0" y="334.28930232560003"/>
      <point x="663.0" y="217.0" type="curve" smooth="yes"/>
      <point x="663.0" y="87.19069767442"/>
      <point x="547.21513627322" y="-10.0"/>
      <point x="355.8" y="-10.0" type="curve" smooth="yes"/>
      <point x="136.8335270974" y="-10.0"/>
      <point x="37.0" y="89.2"/>
      <point x="37.0" y="239.0" type="curve" smooth="yes"/>
      <point x="37.0" y="384.33302961276"/>
      <point x="154.68463695064" y="534.49465915806"/>
      <point x="349.8" y="676.8" type="curve" smooth="yes"/>
      <point x="386.85027438288" y="703.6204704956"/>
      <point x="399.87246376807997" y="710.2"/>
      <point x="420.4" y="710.2" type="curve" smooth="yes"/>
      <point x="463.59574468088" y="710.2"/>
      <point x="496.8" y="668.60404040408"/>
      <point x="496.8" y="626.8" type="curve" smooth="yes"/>
      <point x="496.8" y="604.2"/>
      <point x="492.0" y="589.4"/>
    </contour>
  </outline>
</glyph>
<glyph name="seven" format="2">
  <advance width="700.0"/>
  <unicode hex="0037"/>
  <outline>
    <contour>
      <point x="182.0" y="362.0" type="curve" smooth="yes"/>
      <point x="290.61355932204" y="362.0"/>
      <point x="386.5627118644" y="390.0"/>
      <point x="548.0" y="390.0" type="curve" smooth="yes"/>
      <point x="619.45" y="390.0"/>
      <point x="662.0" y="348.84705882352"/>
      <point x="662.0" y="297.0" type="curve" smooth="yes"/>
      <point x="662.0" y="265.8"/>
      <point x="639.8" y="245.0"/>
      <point x="599.0" y="245.0" type="curve" smooth="yes"/>
      <point x="387.7407202216" y="245.0"/>
      <point x="312.21994301994" y="217.0"/>
      <point x="220.0" y="217.0" type="curve" smooth="yes"/>
      <point x="167.4" y="217.0"/>
      <point x="128.6" y="259.0"/>
      <point x="128.6" y="302.8" type="curve" smooth="yes"/>
      <point x="128.6" y="340.8"/>
      <point x="146.2" y="362.0"/>
    </contour>
    <contour>
      <point x="67.6" y="645.4" type="curve" smooth="yes"/>
      <point x="161.8" y="682.2"/>
      <point x="292.15989858056" y="710.0"/>
      <point x="376.0" y="710.0" type="curve" smooth="yes"/>
      <point x="547.2156862744799" y="710.0"/>
      <point x="612.0" y="638.2"/>
      <point x="612.0" y="533.0" type="curve" smooth="yes"/>
      <point x="612.0" y="377.0"/>
      <point x="428.0" y="235.0"/>
      <point x="428.0" y="65.8" type="curve" smooth="yes"/>
      <point x="428.0" y="8.0"/>
      <point x="411.4" y="-9.0"/>
      <point x="369.0" y="-9.0" type="curve" smooth="yes"/>
      <point x="318.2" y="-9.0"/>
      <point x="276.2" y="18.0"/>
      <point x="276.2" y="76.2" type="curve" smooth="yes"/>
      <point x="276.2" y="241.4"/>
      <point x="457.0" y="439.0"/>
      <point x="457.0" y="517.2" type="curve" smooth="yes"/>
      <point x="457.0" y="551.4"/>
      <point x="439.0" y="565.4"/>
      <point x="383.0" y="565.4" type="curve" smooth="yes"/>
      <point x="227.6" y="565.4"/>
      <point x="161.2474820144" y="511.2"/>
      <point x="115.0" y="511.2" type="curve" smooth="yes"/>
      <point x="77.78181818184001" y="511.2"/>
      <point x="38.2" y="556.0"/>
      <point x="38.2" y="596.8" type="curve" smooth="yes"/>
      <point x="38.2" y="617.2"/>
      <point x="48.2" y="638.2"/>
    </contour>
  </outline>
</glyph>
<glyph name="eight" format="2">
  <advance width="700.0"/>
  <unicode hex="0038"/>
  <outline>
    <contour>
      <point x="406.0" y="564.4" type="curve" smooth="yes"/>
      <point x="241.53103384942" y="569.51571286678"/>
      <point x="196.8" y="551.4"/>
      <point x="196.8" y="526.6" type="curve" smooth="yes"/>
      <point x="196.8" y="491.62727272728"/>
      <point x="274.6" y="466.4"/>
      <point x="400.0" y="423.6" type="curve" smooth="yes"/>
      <point x="616.5607773972799" y="349.7364386388"/>
      <point x="649.0" y="304.4"/>
      <point x="649.0" y="215.6" type="curve" smooth="yes"/>
      <point x="649.0" y="96.6"/>
      <point x="555.63529411768" y="-12.0"/>
      <point x="309.6" y="-12.0" type="curve" smooth="yes"/>
      <point x="125.24615384615998" y="-12.0"/>
      <point x="56.199944808" y="70.197323188"/>
      <point x="57.8" y="162.6" type="curve" smooth="yes"/>
      <point x="59.5902522284" y="234.70178728528"/>
      <point x="92.23123217439999" y="294.88168501984"/>
      <point x="311.6" y="415.4" type="curve" smooth="yes"/>
      <point x="453.31133380336" y="491.94347392808"/>
      <point x="490.8948102076" y="533.98880353888"/>
      <point x="505.0" y="586.8" type="curve" smooth="yes"/>
      <point x="514.8" y="621.4"/>
      <point x="528.15555555556" y="642.2"/>
      <point x="559.6" y="642.2" type="curve" smooth="yes"/>
      <point x="604.57192982456" y="642.2"/>
      <point x="642.6" y="601.6"/>
      <point x="642.6" y="549.8" type="curve" smooth="yes"/>
      <point x="642.6" y="491.0"/>
      <point x="596.50720248416" y="416.82243502778"/>
      <point x="446.6" y="332.0" type="curve" smooth="yes"/>
      <point x="233.6" y="212.2"/>
      <point x="212.2" y="186.81711229944"/>
      <point x="212.2" y="147.2" type="curve" smooth="yes"/>
      <point x="212.2" y="124.41176470591999"/>
      <point x="213.12655083936" y="94.30199823288"/>
      <point x="233.4" y="53.8" type="curve"/>
      <point x="149.6" y="164.0" type="line"/>
      <point x="207.31798088512" y="139.29114551104"/>
      <point x="252.3107692308" y="137.8"/>
      <point x="308.0" y="137.8" type="curve" smooth="yes"/>
      <point x="407.54838709679996" y="137.8"/>
      <point x="489.2" y="158.9225806452"/>
      <point x="489.2" y="218.4" type="curve" smooth="yes"/>
      <point x="489.2" y="248.2"/>
      <point x="470.4" y="275.0"/>
      <point x="329.8" y="314.0" type="curve" smooth="yes"/>
      <point x="88.8" y="381.2"/>
      <point x="44.0" y="437.2"/>
      <point x="45.0" y="527.0" type="curve" smooth="yes"/>
      <point x="46.999987907199994" y="643.59927443328"/>
      <point x="138.55594250116" y="712.32757542698"/>
      <point x="349.0" y="711.0" type="curve" smooth="yes"/>
      <point x="426.2" y="710.6"/>
      <point x="467.4" y="662.8"/>
      <point x="465.8" y="617.8" type="curve" smooth="yes"/>
      <point x="465.0" y="588.0"/>
      <point x="438.0" y="563.4"/>
    </contour>
  </outline>
</glyph>
<glyph name="nine" format="2">
  <advance width="700.0"/>
  <unicode hex="0039"/>
  <outline>
    <contour>
      <point x="468.8" y="537.8" type="curve" smooth="yes"/>
      <point x="502.8" y="537.8"/>
      <point x="517.8" y="568.2"/>
      <point x="517.8" y="597.8" type="curve" smooth="yes"/>
      <point x="517.8" y="667.0"/>
      <point x="463.3627118644" y="710.0"/>
      <point x="369.0" y="710.0" type="curve" smooth="yes"/>
      <point x="151.6" y="710.0"/>
      <point x="44.0" y="572.29007633584"/>
      <point x="44.0" y="445.2" type="curve" smooth="yes"/>
      <point x="44.0" y="322.99238095239997"/>
      <point x="116.12977777776" y="247.6"/>
      <point x="260.2" y="247.6" type="curve" smooth="yes"/>
      <point x="393.36435643568" y="247.6"/>
      <point x="485.45226906472" y="300.91561560872003"/>
      <point x="555.4" y="422.4" type="curve"/>
      <point x="466.6" y="380.6" type="line"/>
      <point x="466.6" y="250.29611307424"/>
      <point x="467.18962647176" y="146.32950263912"/>
      <point x="478.2" y="74.0" type="curve" smooth="yes"/>
      <point x="486.81409390031996" y="25.053752900599996"/>
      <point x="524.8" y="-9.0"/>
      <point x="577.4" y="-9.0" type="curve" smooth="yes"/>
      <point x="616.4" y="-9.0"/>
      <point x="638.0" y="11.600000000000001"/>
      <point x="638.0" y="57.800000000000004" type="curve" smooth="yes"/>
      <point x="638.0" y="98.2"/>
      <point x="622.0" y="145.61195219124"/>
      <point x="622.0" y="282.4" type="curve" smooth="yes"/>
      <point x="622.0" y="332.0"/>
      <point x="622.2" y="394.2"/>
      <point x="624.8" y="489.8" type="curve"/>
      <point x="649.38852818912" y="606.93599937084"/>
      <point x="618.2" y="664.2"/>
      <point x="532.8" y="664.2" type="curve" smooth="yes"/>
      <point x="501.4" y="664.2"/>
      <point x="480.0" y="641.4"/>
      <point x="480.0" y="600.8" type="curve" smooth="yes"/>
      <point x="480.0" y="445.71978609624"/>
      <point x="384.0" y="395.0"/>
      <point x="261.0" y="395.0" type="curve" smooth="yes"/>
      <point x="218.0" y="395.0"/>
      <point x="195.8" y="416.31111111112"/>
      <point x="195.8" y="450.0" type="curve" smooth="yes"/>
      <point x="195.8" y="500.70909090912"/>
      <point x="248.0" y="560.2"/>
      <point x="369.0" y="560.2" type="curve" smooth="yes"/>
      <point x="426.8" y="560.2"/>
      <point x="440.8" y="537.8"/>
    </contour>
  </outline>
</glyph>
<glyph name="A" format="2">
  <advance width="723.0"/>
  <unicode hex="0041"/>
  <outline>
    <contour>
      <point x="643.0" y="-10.333333333359999" type="curve" smooth="yes"/>
      <point x="667.6666666666399" y="-10.333333333359999"/>
      <point x="684.6666666666399" y="5.0"/>
      <point x="684.6666666666399" y="31.0" type="curve" smooth="yes"/>
      <point x="684.6666666666399" y="73.66666666664"/>
      <point x="608.48223398384" y="198.34131542654"/>
      <point x="587.6666666666399" y="397.0" type="curve" smooth="yes"/>
      <point x="564.6666666666399" y="610.6666666666399"/>
      <point x="527.0" y="720.6666666666399"/>
      <point x="399.66666666664" y="720.6666666666399" type="curve" smooth="yes"/>
      <point x="316.49084249086" y="720.6666666666399"/>
      <point x="238.67234396056" y="655.01182769562"/>
      <point x="181.33333333336" y="540.6666666666399" type="curve"/>
      <point x="232.66666666664" y="575.0" type="line"/>
      <point x="202.52951214168" y="594.87319453564"/>
      <point x="174.17886178858" y="608.3333333333601"/>
      <point x="141.0" y="608.3333333333601" type="curve" smooth="yes"/>
      <point x="113.66666666664" y="608.3333333333601"/>
      <point x="100.66666666664" y="593.0"/>
      <point x="100.66666666664" y="569.3333333333601" type="curve" smooth="yes"/>
      <point x="100.66666666664" y="425.1111111111"/>
      <point x="51.0" y="333.0"/>
      <point x="51.0" y="132.66666666664003" type="curve" smooth="yes"/>
      <point x="51.0" y="43.0"/>
      <point x="98.09033130489999" y="-8.0"/>
      <point x="141.33333333336" y="-8.0" type="curve" smooth="yes"/>
      <point x="173.66666666664" y="-9.333333333359999"/>
      <point x="191.33333333336" y="19.66666666664"/>
      <point x="193.0" y="35.66666666664" type="curve" smooth="yes"/>
      <point x="245.0217679334" y="366.47544030160003"/>
      <point x="332.625" y="583.6666666666399"/>
      <point x="398.33333333336" y="583.6666666666399" type="curve" smooth="yes"/>
      <point x="413.6078431372" y="583.6666666666399"/>
      <point x="433.11965969894" y="557.09884479772"/>
      <point x="452.33333333336" y="381.33333333336" type="curve" smooth="yes"/>
      <point x="464.1053772244" y="271.19866839864"/>
      <point x="475.5241730952" y="131.53097563664"/>
      <point x="527.0" y="56.33333333336" type="curve" smooth="yes"/>
      <point x="568.3333333333601" y="-6.0"/>
      <point x="602.7894736842001" y="-10.333333333359999"/>
    </contour>
    <contour>
      <point x="89.33333333336" y="184.66666666664" type="curve" smooth="yes"/>
      <point x="190.0" y="184.66666666664"/>
      <point x="335.33333333336" y="273.33333333336"/>
      <point x="594.3333333333601" y="273.33333333336" type="curve" smooth="yes"/>
      <point x="656.0" y="273.33333333336"/>
      <point x="708.6666666666399" y="313.33333333336"/>
      <point x="708.6666666666399" y="369.66666666664" type="curve" smooth="yes"/>
      <point x="708.6666666666399" y="402.66666666664"/>
      <point x="695.6666666666399" y="411.33333333336"/>
      <point x="583.6666666666399" y="411.33333333336" type="curve" smooth="yes"/>
      <point x="373.66666666664" y="411.33333333336"/>
      <point x="191.0" y="351.66666666664"/>
      <point x="35.333333333359995" y="290.66666666664" type="curve" smooth="yes"/>
      <point x="12.0" y="281.66666666664"/>
      <point x="2.0" y="270.0"/>
      <point x="2.0" y="250.66666666664" type="curve" smooth="yes"/>
      <point x="2.0" y="213.46031746036"/>
      <point x="45.66666666664" y="184.66666666664"/>
    </contour>
  </outline>
</glyph>
<glyph name="B" format="2">
  <advance width="622.2"/>
  <unicode hex="0042"/>
  <outline>
    <contour>
      <point x="211.8" y="343.4" type="curve" smooth="yes"/>
      <point x="212.6" y="423.8"/>
      <point x="215.0" y="461.2"/>
      <point x="225.0" y="547.4" type="curve" smooth="yes"/>
      <point x="230.8" y="592.0"/>
      <point x="196.4" y="637.6"/>
      <point x="150.4" y="637.6" type="curve" smooth="yes"/>
      <point x="127.0" y="637.6"/>
      <point x="99.6" y="623.6"/>
      <point x="91.6" y="592.2" type="curve" smooth="yes"/>
      <point x="67.0" y="487.8"/>
      <point x="60.2" y="438.0"/>
      <point x="60.2" y="331.0" type="curve" smooth="yes"/>
      <point x="60.2" y="151.8"/>
      <point x="132.4" y="-10.0"/>
      <point x="254.2" y="-10.0" type="curve" smooth="yes"/>
      <point x="378.60139860136" y="-10.0"/>
      <point x="552.2" y="61.199999999999996"/>
      <point x="552.2" y="216.2" type="curve" smooth="yes"/>
      <point x="552.2" y="282.6"/>
      <point x="502.4" y="355.8"/>
      <point x="343.6" y="373.0" type="curve"/>
      <point x="351.0" y="324.6" type="line"/>
      <point x="535.4" y="386.0"/>
      <point x="578.2" y="463.4"/>
      <point x="578.2" y="525.0" type="curve" smooth="yes"/>
      <point x="578.2" y="665.6"/>
      <point x="412.85322128848003" y="712.0"/>
      <point x="199.8" y="712.0" type="curve" smooth="yes"/>
      <point x="77.29710982655999" y="712.0"/>
      <point x="31.4" y="673.6"/>
      <point x="31.4" y="605.2" type="curve" smooth="yes"/>
      <point x="31.4" y="571.2"/>
      <point x="51.6" y="548.0"/>
      <point x="88.4" y="548.0" type="curve" smooth="yes"/>
      <point x="108.6" y="548.0"/>
      <point x="158.0" y="551.2"/>
      <point x="204.4" y="551.2" type="curve" smooth="yes"/>
      <point x="380.75081967216" y="551.2"/>
      <point x="420.2" y="537.6"/>
      <point x="420.2" y="506.0" type="curve" smooth="yes"/>
      <point x="420.2" y="466.4"/>
      <point x="233.76100608" y="407.70314459432"/>
      <point x="165.0" y="390.2" type="curve" smooth="yes"/>
      <point x="135.4" y="382.8"/>
      <point x="117.2" y="359.0"/>
      <point x="117.2" y="336.0" type="curve" smooth="yes"/>
      <point x="117.2" y="290.6"/>
      <point x="143.2" y="261.2"/>
      <point x="180.2" y="262.2" type="curve" smooth="yes"/>
      <point x="322.0575653984" y="265.25250152088"/>
      <point x="402.2" y="242.4"/>
      <point x="402.2" y="202.4" type="curve" smooth="yes"/>
      <point x="402.2" y="181.8"/>
      <point x="310.18504672896" y="140.60000000000002"/>
      <point x="263.0" y="140.60000000000002" type="curve" smooth="yes"/>
      <point x="242.8" y="140.60000000000002"/>
      <point x="210.4" y="201.2"/>
    </contour>
  </outline>
</glyph>
<glyph name="C" format="2">
  <advance width="672.2"/>
  <unicode hex="0043"/>
  <outline>
    <contour>
      <point x="359.8" y="-10.0" type="curve" smooth="yes"/>
      <point x="536.63358778626" y="-10.0"/>
      <point x="623.0" y="61.9409090909"/>
      <point x="623.0" y="147.6" type="curve" smooth="yes"/>
      <point x="623.0" y="183.2"/>
      <point x="608.0" y="211.0"/>
      <point x="583.8" y="211.0" type="curve" smooth="yes"/>
      <point x="550.2" y="211.0"/>
      <point x="496.2938271605" y="136.60000000000002"/>
      <point x="368.4" y="136.60000000000002" type="curve" smooth="yes"/>
      <point x="265.03384615384" y="136.60000000000002"/>
      <point x="199.2" y="186.0"/>
      <point x="199.2" y="276.8" type="curve" smooth="yes"/>
      <point x="199.2" y="409.4"/>
      <point x="304.24525547446" y="548.4"/>
      <point x="446.6" y="548.4" type="curve" smooth="yes"/>
      <point x="479.6" y="548.4"/>
      <point x="485.2" y="537.2"/>
      <point x="485.2" y="518.0" type="curve" smooth="yes"/>
      <point x="485.2" y="495.6"/>
      <point x="493.4" y="478.0"/>
      <point x="517.8" y="478.0" type="curve" smooth="yes"/>
      <point x="575.8" y="478.0"/>
      <point x="613.2" y="542.8"/>
      <point x="613.2" y="606.2" type="curve" smooth="yes"/>
      <point x="613.2" y="669.8"/>
      <point x="575.4" y="711.0"/>
      <point x="479.8" y="711.0" type="curve" smooth="yes"/>
      <point x="249.2" y="711.0"/>
      <point x="45.8" y="506.0"/>
      <point x="45.8" y="289.0" type="curve" smooth="yes"/>
      <point x="45.8" y="116.2"/>
      <point x="158.0" y="-10.0"/>
    </contour>
  </outline>
</glyph>
<glyph name="D" format="2">
  <advance width="702.0"/>
  <unicode hex="0044"/>
  <outline>
    <contour>
      <point x="222.4" y="-10.0" type="curve" smooth="yes"/>
      <point x="427.8" y="-10.0"/>
      <point x="660.2" y="223.6"/>
      <point x="660.2" y="461.2" type="curve" smooth="yes"/>
      <point x="660.2" y="605.8"/>
      <point x="557.4" y="709.0"/>
      <point x="380.4" y="709.0" type="curve" smooth="yes"/>
      <point x="246.70537634408" y="709.0"/>
      <point x="63.182396984899995" y="655.11084643214"/>
      <point x="23.4" y="620.6" type="curve" smooth="yes"/>
      <point x="10.399999999999999" y="608.8"/>
      <point x="7.0" y="599.2"/>
      <point x="7.0" y="583.2" type="curve" smooth="yes"/>
      <point x="7.0" y="534.2"/>
      <point x="60.2" y="494.6"/>
      <point x="121.4" y="494.6" type="curve" smooth="yes"/>
      <point x="184.87035573122" y="494.6"/>
      <point x="242.19841897234" y="554.4"/>
      <point x="380.4" y="554.4" type="curve" smooth="yes"/>
      <point x="480.2" y="554.4"/>
      <point x="506.2" y="519.8"/>
      <point x="506.2" y="454.4" type="curve" smooth="yes"/>
      <point x="506.2" y="275.2"/>
      <point x="362.2" y="179.60000000000002"/>
      <point x="169.0" y="125.4" type="curve"/>
      <point x="253.4" y="94.2" type="line"/>
      <point x="248.2" y="135.4"/>
      <point x="244.60000000000002" y="168.8"/>
      <point x="244.60000000000002" y="194.2" type="curve" smooth="yes"/>
      <point x="244.60000000000002" y="284.4"/>
      <point x="257.4" y="433.2"/>
      <point x="257.4" y="531.8" type="curve" smooth="yes"/>
      <point x="257.4" y="569.0"/>
      <point x="224.6" y="599.0"/>
      <point x="183.4" y="599.0" type="curve" smooth="yes"/>
      <point x="130.6" y="599.0"/>
      <point x="109.6" y="582.6"/>
      <point x="106.2" y="541.2" type="curve" smooth="yes"/>
      <point x="95.4" y="414.6"/>
      <point x="89.4" y="299.8"/>
      <point x="89.4" y="158.0" type="curve" smooth="yes"/>
      <point x="89.4" y="75.0"/>
      <point x="145.2" y="-10.0"/>
    </contour>
  </outline>
</glyph>
<glyph name="E" format="2">
  <advance width="695.8"/>
  <unicode hex="0045"/>
  <outline>
    <contour>
      <point x="106.6" y="532.2" type="curve" smooth="yes"/>
      <point x="80.2" y="449.4"/>
      <point x="68.8" y="361.0"/>
      <point x="68.8" y="293.0" type="curve" smooth="yes"/>
      <point x="68.8" y="127.8"/>
      <point x="165.4" y="-7.0"/>
      <point x="361.8" y="-7.0" type="curve" smooth="yes"/>
      <point x="554.8" y="-7.0"/>
      <point x="655.6" y="45.2"/>
      <point x="655.6" y="127.4" type="curve" smooth="yes"/>
      <point x="655.6" y="161.0"/>
      <point x="644.0" y="182.60000000000002"/>
      <point x="600.4" y="182.60000000000002" type="curve" smooth="yes"/>
      <point x="562.2" y="182.60000000000002"/>
      <point x="493.4" y="146.0"/>
      <point x="361.0" y="146.0" type="curve" smooth="yes"/>
      <point x="275.2" y="146.0"/>
      <point x="223.0" y="208.2"/>
      <point x="223.2" y="291.8" type="curve" smooth="yes"/>
      <point x="223.4" y="401.8"/>
      <point x="251.4" y="502.4"/>
      <point x="264.0" y="554.0" type="curve" smooth="yes"/>
      <point x="268.6" y="593.4"/>
      <point x="231.4" y="614.0"/>
      <point x="206.2" y="614.0" type="curve" smooth="yes"/>
      <point x="159.0" y="614.0"/>
      <point x="122.8" y="583.4"/>
    </contour>
    <contour>
      <point x="192.6" y="244.2" type="curve" smooth="yes"/>
      <point x="261.6" y="260.2"/>
      <point x="346.6" y="274.0"/>
      <point x="472.2" y="281.6" type="curve" smooth="yes"/>
      <point x="524.6" y="285.2"/>
      <point x="564.4" y="315.6"/>
      <point x="564.4" y="374.4" type="curve" smooth="yes"/>
      <point x="564.4" y="420.8"/>
      <point x="549.6" y="432.4"/>
      <point x="486.4" y="432.4" type="curve" smooth="yes"/>
      <point x="362.0" y="428.2"/>
      <point x="272.0" y="413.8"/>
      <point x="199.4" y="398.4" type="curve" smooth="yes"/>
      <point x="161.2" y="389.8"/>
      <point x="134.0" y="357.2"/>
      <point x="134.0" y="320.0" type="curve" smooth="yes"/>
      <point x="134.0" y="273.8"/>
      <point x="146.4" y="234.2"/>
    </contour>
    <contour>
      <point x="170.4" y="524.8" type="curve" smooth="yes"/>
      <point x="234.4" y="524.8"/>
      <point x="400.4" y="564.6"/>
      <point x="613.8" y="564.6" type="curve" smooth="yes"/>
      <point x="645.2" y="564.6"/>
      <point x="655.6" y="586.4"/>
      <point x="655.6" y="614.2" type="curve" smooth="yes"/>
      <point x="655.6" y="668.2"/>
      <point x="600.8" y="711.2"/>
      <point x="508.2" y="711.2" type="curve" smooth="yes"/>
      <point x="413.8" y="711.2"/>
      <point x="236.4" y="698.2"/>
      <point x="95.6" y="656.8" type="curve" smooth="yes"/>
      <point x="64.6" y="647.2"/>
      <point x="57.4" y="628.8"/>
      <point x="57.4" y="606.6" type="curve" smooth="yes"/>
      <point x="57.4" y="562.2"/>
      <point x="96.2" y="524.8"/>
    </contour>
  </outline>
</glyph>
<glyph name="F" format="2">
  <advance width="595.0"/>
  <unicode hex="0046"/>
  <outline>
    <contour>
      <point x="242.2" y="270.0" type="curve" smooth="yes"/>
      <point x="241.60000000000002" y="415.0"/>
      <point x="257.2" y="514.0"/>
      <point x="260.6" y="558.4" type="curve" smooth="yes"/>
      <point x="261.4" y="588.8"/>
      <point x="246.8" y="592.8"/>
      <point x="202.4" y="592.8" type="curve" smooth="yes"/>
      <point x="153.4" y="592.8"/>
      <point x="123.4" y="570.4"/>
      <point x="109.6" y="501.6" type="curve" smooth="yes"/>
      <point x="96.0" y="436.6"/>
      <point x="89.4" y="380.0"/>
      <point x="89.4" y="294.0" type="curve" smooth="yes"/>
      <point x="89.4" y="175.0"/>
      <point x="108.6" y="94.6"/>
      <point x="141.6" y="51.8" type="curve" smooth="yes"/>
      <point x="177.8" y="3.1999999999999993"/>
      <point x="227.0" y="-10.0"/>
      <point x="262.6" y="-10.0" type="curve" smooth="yes"/>
      <point x="300.4" y="-10.0"/>
      <point x="312.6" y="4.0"/>
      <point x="312.6" y="33.2" type="curve" smooth="yes"/>
      <point x="312.6" y="69.0"/>
      <point x="243.2" y="108.8"/>
    </contour>
    <contour>
      <point x="514.4" y="558.0" type="curve" smooth="yes"/>
      <point x="547.4" y="558.0"/>
      <point x="558.4" y="572.4"/>
      <point x="558.4" y="607.0" type="curve" smooth="yes"/>
      <point x="558.4" y="667.8"/>
      <point x="500.6" y="707.8"/>
      <point x="433.4" y="711.0" type="curve" smooth="yes"/>
      <point x="314.4" y="715.8"/>
      <point x="164.0" y="680.6"/>
      <point x="67.0" y="655.8" type="curve" smooth="yes"/>
      <point x="33.2" y="647.6"/>
      <point x="21.4" y="624.4"/>
      <point x="21.4" y="603.6" type="curve" smooth="yes"/>
      <point x="21.4" y="563.6"/>
      <point x="59.8" y="514.8"/>
      <point x="142.4" y="514.8" type="curve" smooth="yes"/>
      <point x="186.4" y="514.8"/>
      <point x="301.6" y="558.0"/>
    </contour>
    <contour>
      <point x="205.8" y="205.39999999999998" type="curve" smooth="yes"/>
      <point x="257.8" y="218.6"/>
      <point x="356.6" y="234.2"/>
      <point x="434.6" y="238.8" type="curve" smooth="yes"/>
      <point x="485.2" y="242.2"/>
      <point x="544.4" y="273.8"/>
      <point x="544.4" y="341.0" type="curve"/>
      <point x="544.4" y="375.4"/>
      <point x="530.8" y="387.4"/>
      <point x="473.2" y="387.4" type="curve" smooth="yes"/>
      <point x="371.0" y="383.2"/>
      <point x="267.0" y="373.4"/>
      <point x="191.0" y="356.8" type="curve" smooth="yes"/>
      <point x="152.2" y="347.6"/>
      <point x="117.2" y="304.6"/>
      <point x="117.2" y="265.2" type="curve" smooth="yes"/>
      <point x="117.2" y="226.39999999999998"/>
      <point x="143.0" y="190.2"/>
    </contour>
  </outline>
</glyph>
<glyph name="G" format="2">
  <advance width="739.0"/>
  <unicode hex="0047"/>
  <outline>
    <contour>
      <point x="367.8" y="251.0" type="curve" smooth="yes"/>
      <point x="429.34018691588" y="251.0"/>
      <point x="484.62429906542" y="287.4"/>
      <point x="664.4" y="287.4" type="curve" smooth="yes"/>
      <point x="733.48" y="287.4"/>
      <point x="762.4" y="327.9"/>
      <point x="762.4" y="371.6" type="curve" smooth="yes"/>
      <point x="762.4" y="400.28766283528"/>
      <point x="743.6" y="417.6"/>
      <point x="644.0" y="417.6" type="curve" smooth="yes"/>
      <point x="526.8" y="416.0"/>
      <point x="429.2" y="396.2"/>
      <point x="336.0" y="371.0" type="curve" smooth="yes"/>
      <point x="286.38763493711997" y="357.50853778239997"/>
      <point x="273.0" y="342.28571428568"/>
      <point x="273.0" y="314.4" type="curve" smooth="yes"/>
      <point x="273.0" y="276.6"/>
      <point x="314.2" y="251.0"/>
    </contour>
    <contour>
      <point x="684.3333333333601" y="-105.0" type="curve" smooth="yes"/>
      <point x="706.1212121212001" y="-105.0"/>
      <point x="735.0" y="-89.77777777776001"/>
      <point x="735.0" y="-58.33333333336" type="curve"/>
      <point x="735.0" y="-38.0"/>
      <point x="731.0" y="-26.33333333336"/>
      <point x="709.6666666666399" y="8.0" type="curve" smooth="yes"/>
      <point x="671.3333333333601" y="67.66666666664"/>
      <point x="640.3333333333601" y="209.66666666664"/>
      <point x="640.3333333333601" y="297.0" type="curve" smooth="yes"/>
      <point x="640.3333333333601" y="329.0"/>
      <point x="611.4109589041001" y="348.0"/>
      <point x="561.0" y="348.0" type="curve" smooth="yes"/>
      <point x="528.6119402985" y="348.0"/>
      <point x="518.6" y="332.0"/>
      <point x="499.0" y="300.4" type="curve" smooth="yes"/>
      <point x="431.6" y="188.0"/>
      <point x="339.33227091632" y="121.4"/>
      <point x="252.0" y="121.4" type="curve" smooth="yes"/>
      <point x="178.5978494624" y="121.4"/>
      <point x="149.0" y="173.15"/>
      <point x="149.0" y="238.6" type="curve" smooth="yes"/>
      <point x="149.0" y="376.2"/>
      <point x="316.6" y="552.6"/>
      <point x="435.0" y="552.3333333333601" type="curve" smooth="yes"/>
      <point x="471.4" y="552.6"/>
      <point x="437.4" y="506.2"/>
      <point x="487.0" y="506.2" type="curve" smooth="yes"/>
      <point x="530.6" y="506.2"/>
      <point x="579.0" y="573.8347107438"/>
      <point x="579.0" y="634.0" type="curve" smooth="yes"/>
      <point x="579.0" y="674.0"/>
      <point x="551.86786786784" y="708.0"/>
      <point x="485.0" y="708.0" type="curve" smooth="yes"/>
      <point x="274.66666666664" y="708.0"/>
      <point x="15.0" y="480.2"/>
      <point x="15.0" y="240.4" type="curve" smooth="yes"/>
      <point x="15.0" y="87.2"/>
      <point x="94.0" y="-10.0"/>
      <point x="253.4" y="-10.0" type="curve" smooth="yes"/>
      <point x="363.0" y="-10.0"/>
      <point x="456.2" y="44.8"/>
      <point x="520.0" y="140.39999999999998" type="curve"/>
      <point x="530.2" y="63.199999999999996"/>
      <point x="551.9610131024" y="-8.17689956696"/>
      <point x="574.0" y="-48.33333333336" type="curve" smooth="yes"/>
      <point x="596.9214518290601" y="-88.26673207516001"/>
      <point x="639.1896551724001" y="-105.0"/>
    </contour>
  </outline>
</glyph>
<glyph name="H" format="2">
  <advance width="727.2"/>
  <unicode hex="0048"/>
  <outline>
    <contour>
      <point x="193.4" y="-12.0" type="curve" smooth="yes"/>
      <point x="229.8" y="-12.0"/>
      <point x="258.4" y="15.4"/>
      <point x="258.4" y="48.0" type="curve" smooth="yes"/>
      <point x="258.4" y="191.0"/>
      <point x="247.4" y="398.8"/>
      <point x="247.4" y="610.0" type="curve" smooth="yes"/>
      <point x="247.4" y="677.0"/>
      <point x="197.6" y="709.0"/>
      <point x="147.6" y="709.0" type="curve" smooth="yes"/>
      <point x="96.6" y="709.0"/>
      <point x="74.8" y="691.6"/>
      <point x="74.8" y="642.0" type="curve" smooth="yes"/>
      <point x="74.8" y="536.4"/>
      <point x="103.4" y="263.8"/>
      <point x="97.0" y="110.2" type="curve" smooth="yes"/>
      <point x="93.8" y="50.0"/>
      <point x="147.8" y="-12.0"/>
    </contour>
    <contour>
      <point x="598.6" y="-10.0" type="curve" smooth="yes"/>
      <point x="633.8" y="-10.0"/>
      <point x="650.6" y="16.200000000000003"/>
      <point x="649.4" y="42.6" type="curve" smooth="yes"/>
      <point x="646.8" y="124.0"/>
      <point x="631.4" y="176.0"/>
      <point x="630.4" y="233.0" type="curve" smooth="yes"/>
      <point x="629.4" y="319.2"/>
      <point x="636.4" y="456.0"/>
      <point x="636.4" y="566.0" type="curve" smooth="yes"/>
      <point x="636.4" y="658.4"/>
      <point x="596.6" y="704.0"/>
      <point x="543.0" y="704.0" type="curve" smooth="yes"/>
      <point x="512.8" y="704.0"/>
      <point x="484.6" y="688.2"/>
      <point x="484.6" y="652.0" type="curve" smooth="yes"/>
      <point x="484.6" y="565.0"/>
      <point x="471.2" y="434.0"/>
      <point x="471.2" y="295.0" type="curve" smooth="yes"/>
      <point x="471.2" y="95.8"/>
      <point x="510.6" y="-10.0"/>
    </contour>
    <contour>
      <point x="188.4" y="283.2" type="curve" smooth="yes"/>
      <point x="251.0" y="283.2"/>
      <point x="352.6" y="313.2"/>
      <point x="632.4" y="313.2" type="curve" smooth="yes"/>
      <point x="663.6" y="313.2"/>
      <point x="681.8" y="332.2"/>
      <point x="681.8" y="362.2" type="curve" smooth="yes"/>
      <point x="681.8" y="397.6"/>
      <point x="643.0" y="456.2"/>
      <point x="535.4" y="456.2" type="curve" smooth="yes"/>
      <point x="382.4" y="456.2"/>
      <point x="228.0" y="452.0"/>
      <point x="79.0" y="412.6" type="curve" smooth="yes"/>
      <point x="51.6" y="405.6"/>
      <point x="45.4" y="391.4"/>
      <point x="45.4" y="371.6" type="curve" smooth="yes"/>
      <point x="45.4" y="328.6"/>
      <point x="96.2" y="283.2"/>
    </contour>
  </outline>
</glyph>
<glyph name="I" format="2">
  <advance width="608.0"/>
  <unicode hex="0049"/>
  <outline>
    <contour>
      <point x="146.0" y="-11.0" type="curve" smooth="yes"/>
      <point x="197.38451302202" y="-11.0"/>
      <point x="316.14752635144004" y="0.0"/>
      <point x="459.66666666664" y="0.0" type="curve" smooth="yes"/>
      <point x="547.03603603606" y="0.0"/>
      <point x="584.0" y="35.1754385965"/>
      <point x="584.0" y="79.0" type="curve" smooth="yes"/>
      <point x="584.0" y="108.76811594206"/>
      <point x="565.51937984494" y="131.66666666664003"/>
      <point x="484.66666666664" y="131.66666666664003" type="curve" smooth="yes"/>
      <point x="320.62342912786" y="131.66666666664003"/>
      <point x="241.0" y="128.60000000000002"/>
      <point x="69.33333333336" y="117.33333333336" type="curve" smooth="yes"/>
      <point x="40.4" y="115.60000000000001"/>
      <point x="23.0" y="91.16666666664"/>
      <point x="23.0" y="65.66666666664" type="curve" smooth="yes"/>
      <point x="23.0" y="21.0"/>
      <point x="58.825242718460004" y="-11.0"/>
    </contour>
    <contour>
      <point x="103.0" y="546.3333333333601" type="curve"/>
      <point x="174.0" y="546.3333333333601"/>
      <point x="240.0" y="560.3333333333601"/>
      <point x="445.33333333336" y="560.3333333333601" type="curve" smooth="yes"/>
      <point x="516.0" y="560.3333333333601"/>
      <point x="569.0" y="593.6666666666399"/>
      <point x="569.0" y="645.6666666666399" type="curve" smooth="yes"/>
      <point x="569.0" y="688.0"/>
      <point x="549.6666666666399" y="698.3333333333601"/>
      <point x="486.0" y="698.3333333333601" type="curve" smooth="yes"/>
      <point x="468.0" y="698.3333333333601"/>
      <point x="198.66666666664" y="702.3333333333601"/>
      <point x="73.33333333336" y="677.6666666666399" type="curve" smooth="yes"/>
      <point x="33.0" y="669.0"/>
      <point x="25.0" y="653.0"/>
      <point x="25.0" y="625.0" type="curve" smooth="yes"/>
      <point x="25.0" y="582.6666666666399"/>
      <point x="47.0" y="546.3333333333601"/>
    </contour>
    <contour>
      <point x="296.0" y="93.33333333336" type="curve" smooth="yes"/>
      <point x="328.33333333336" y="93.33333333336"/>
      <point x="346.66666666664" y="111.66666666664"/>
      <point x="346.66666666664" y="149.0" type="curve" smooth="yes"/>
      <point x="346.66666666664" y="343.66666666664"/>
      <point x="363.66666666664" y="500.0"/>
      <point x="363.66666666664" y="581.6666666666399" type="curve" smooth="yes"/>
      <point x="363.66666666664" y="620.6666666666399"/>
      <point x="325.0" y="651.6666666666399"/>
      <point x="278.66666666664" y="651.6666666666399" type="curve" smooth="yes"/>
      <point x="238.33333333336" y="651.6666666666399"/>
      <point x="225.66666666664" y="633.6666666666399"/>
      <point x="225.66666666664" y="597.3333333333601" type="curve" smooth="yes"/>
      <point x="225.66666666664" y="483.66666666664"/>
      <point x="210.0" y="328.0"/>
      <point x="210.0" y="170.33333333336" type="curve" smooth="yes"/>
      <point x="210.0" y="123.33333333336"/>
      <point x="244.0" y="93.33333333336"/>
    </contour>
  </outline>
</glyph>
<glyph name="J" format="2">
  <advance width="640.8"/>
  <unicode hex="004A"/>
  <outline>
    <contour>
      <point x="294.2" y="-12.0" type="curve" smooth="yes"/>
      <point x="476.2" y="-12.0"/>
      <point x="573.2" y="64.4"/>
      <point x="573.2" y="234.0" type="curve" smooth="yes"/>
      <point x="573.2" y="328.8"/>
      <point x="533.6" y="500.8"/>
      <point x="497.8" y="597.2" type="curve" smooth="yes"/>
      <point x="475.8" y="657.2"/>
      <point x="440.0" y="674.4"/>
      <point x="373.2" y="676.0" type="curve" smooth="yes"/>
      <point x="340.8" y="676.0"/>
      <point x="318.8" y="644.0"/>
      <point x="332.4" y="608.6" type="curve" smooth="yes"/>
      <point x="373.4" y="510.4"/>
      <point x="417.2" y="344.0"/>
      <point x="417.2" y="256.0" type="curve" smooth="yes"/>
      <point x="417.2" y="175.4"/>
      <point x="386.8" y="139.4"/>
      <point x="294.2" y="139.4" type="curve" smooth="yes"/>
      <point x="216.2" y="139.4"/>
      <point x="192.0" y="166.60000000000002"/>
      <point x="192.0" y="197.8" type="curve" smooth="yes"/>
      <point x="192.0" y="230.6"/>
      <point x="219.2" y="252.8"/>
      <point x="219.2" y="282.8" type="curve" smooth="yes"/>
      <point x="219.2" y="307.6"/>
      <point x="204.0" y="320.2"/>
      <point x="174.8" y="320.2" type="curve" smooth="yes"/>
      <point x="84.6" y="320.2"/>
      <point x="43.199999999999996" y="229.8"/>
      <point x="43.199999999999996" y="169.0" type="curve" smooth="yes"/>
      <point x="43.199999999999996" y="56.2"/>
      <point x="145.4" y="-12.0"/>
    </contour>
    <contour>
      <point x="206.6" y="547.6" type="curve" smooth="yes"/>
      <point x="286.6" y="547.6"/>
      <point x="413.4" y="564.4"/>
      <point x="544.2" y="564.4" type="curve" smooth="yes"/>
      <point x="587.6" y="564.4"/>
      <point x="610.2" y="583.4"/>
      <point x="610.2" y="618.4" type="curve" smooth="yes"/>
      <point x="610.2" y="695.4"/>
      <point x="535.0" y="712.0"/>
      <point x="468.2" y="712.0" type="curve" smooth="yes"/>
      <point x="359.0" y="712.0"/>
      <point x="303.4" y="700.0"/>
      <point x="224.8" y="700.0" type="curve" smooth="yes"/>
      <point x="183.8" y="700.0"/>
      <point x="150.6" y="713.0"/>
      <point x="106.0" y="713.0" type="curve" smooth="yes"/>
      <point x="76.8" y="713.0"/>
      <point x="60.4" y="693.4"/>
      <point x="60.4" y="663.0" type="curve" smooth="yes"/>
      <point x="60.4" y="578.6"/>
      <point x="146.6" y="547.6"/>
    </contour>
  </outline>
</glyph>
<glyph name="K" format="2">
  <advance width="690.0"/>
  <unicode hex="004B"/>
  <outline>
    <contour>
      <point x="178.2" y="-11.0" type="curve" smooth="yes"/>
      <point x="207.0" y="-11.0"/>
      <point x="225.0" y="6.4"/>
      <point x="225.0" y="35.0" type="curve" smooth="yes"/>
      <point x="225.0" y="84.2"/>
      <point x="213.0" y="112.2"/>
      <point x="213.0" y="199.4" type="curve" smooth="yes"/>
      <point x="213.0" y="332.0"/>
      <point x="236.4" y="467.0"/>
      <point x="236.4" y="552.0" type="curve" smooth="yes"/>
      <point x="236.4" y="617.0"/>
      <point x="223.2" y="710.0"/>
      <point x="125.2" y="710.0" type="curve" smooth="yes"/>
      <point x="87.0" y="710.0"/>
      <point x="72.6" y="691.2"/>
      <point x="72.6" y="660.0" type="curve" smooth="yes"/>
      <point x="72.6" y="629.8"/>
      <point x="83.0" y="609.2"/>
      <point x="83.0" y="550.4" type="curve" smooth="yes"/>
      <point x="83.0" y="482.4"/>
      <point x="60.599999999999994" y="345.2"/>
      <point x="60.599999999999994" y="187.0" type="curve" smooth="yes"/>
      <point x="60.599999999999994" y="41.0"/>
      <point x="87.2" y="-11.0"/>
    </contour>
    <contour>
      <point x="606.6" y="-11.0" type="curve" smooth="yes"/>
      <point x="657.175" y="-11.0"/>
      <point x="677.0" y="16.18823529408"/>
      <point x="677.0" y="60.400000000000006" type="curve" smooth="yes"/>
      <point x="677.0" y="102.91717171719999"/>
      <point x="655.2" y="131.0"/>
      <point x="603.8" y="143.2" type="curve" smooth="yes"/>
      <point x="430.0" y="184.0"/>
      <point x="337.0" y="270.8198757764"/>
      <point x="337.0" y="315.8" type="curve" smooth="yes"/>
      <point x="337.0" y="366.4"/>
      <point x="430.8" y="479.6"/>
      <point x="538.8" y="542.8" type="curve" smooth="yes"/>
      <point x="590.0" y="572.4"/>
      <point x="603.2" y="593.8"/>
      <point x="603.2" y="638.4" type="curve" smooth="yes"/>
      <point x="603.2" y="687.4"/>
      <point x="571.6" y="711.4"/>
      <point x="530.4" y="711.4" type="curve" smooth="yes"/>
      <point x="508.6" y="711.4"/>
      <point x="481.8" y="701.4"/>
      <point x="449.4" y="679.2" type="curve" smooth="yes"/>
      <point x="317.8" y="586.4"/>
      <point x="197.0" y="428.8"/>
      <point x="197.0" y="295.2" type="curve" smooth="yes"/>
      <point x="197.0" y="103.2"/>
      <point x="492.0" y="-11.0"/>
    </contour>
  </outline>
</glyph>
<glyph name="L" format="2">
  <advance width="532.0"/>
  <unicode hex="004C"/>
  <outline>
    <contour>
      <point x="289.2" y="-9.0" type="curve" smooth="yes"/>
      <point x="355.8721030043" y="-9.0"/>
      <point x="429.92825520876" y="6.03599865866"/>
      <point x="476.6" y="40.6" type="curve" smooth="yes"/>
      <point x="508.0" y="66.2"/>
      <point x="520.6" y="100.6"/>
      <point x="520.6" y="137.4" type="curve" smooth="yes"/>
      <point x="520.6" y="168.60000000000002"/>
      <point x="501.0" y="197.8"/>
      <point x="472.0" y="197.8" type="curve" smooth="yes"/>
      <point x="435.57142857142" y="197.8"/>
      <point x="403.2" y="142.4"/>
      <point x="295.4" y="142.4" type="curve" smooth="yes"/>
      <point x="225.0" y="142.4"/>
      <point x="198.4" y="174.0"/>
      <point x="198.4" y="236.0" type="curve" smooth="yes"/>
      <point x="198.4" y="314.2"/>
      <point x="250.0" y="454.6"/>
      <point x="250.0" y="584.8" type="curve" smooth="yes"/>
      <point x="250.0" y="642.2"/>
      <point x="219.94782608696" y="710.0"/>
      <point x="157.0" y="710.0" type="curve" smooth="yes"/>
      <point x="113.64761904762" y="710.0"/>
      <point x="98.2" y="682.6"/>
      <point x="98.2" y="642.0" type="curve" smooth="yes"/>
      <point x="98.2" y="531.0"/>
      <point x="47.2" y="402.5758186398"/>
      <point x="47.2" y="251.0" type="curve" smooth="yes"/>
      <point x="47.2" y="83.0"/>
      <point x="131.61052631578" y="-9.0"/>
    </contour>
  </outline>
</glyph>
<glyph name="M" format="2">
  <advance width="1020.0"/>
  <unicode hex="004D"/>
  <outline>
    <contour>
      <point x="239.0" y="528.2" type="curve" smooth="yes"/>
      <point x="243.8" y="444.6"/>
      <point x="180.2" y="414.4"/>
      <point x="202.8" y="510.0" type="curve" smooth="yes"/>
      <point x="233.0" y="629.2"/>
      <point x="284.8" y="709.0"/>
      <point x="348.4" y="709.0" type="curve" smooth="yes"/>
      <point x="424.0" y="709.0"/>
      <point x="483.0" y="638.8"/>
      <point x="513.0" y="380.8" type="curve" smooth="yes"/>
      <point x="521.0" y="326.0"/>
      <point x="519.0" y="273.6"/>
      <point x="544.6" y="196.2" type="curve" smooth="yes"/>
      <point x="557.6" y="160.0"/>
      <point x="480.0" y="198.4"/>
      <point x="509.6" y="254.4" type="curve" smooth="yes"/>
      <point x="543.4" y="317.0"/>
      <point x="572.0" y="456.4"/>
      <point x="604.6" y="554.8" type="curve" smooth="yes"/>
      <point x="633.2" y="641.2"/>
      <point x="671.2" y="714.2"/>
      <point x="745.8" y="714.2" type="curve" smooth="yes"/>
      <point x="817.2" y="714.2"/>
      <point x="900.0" y="689.2"/>
      <point x="910.6" y="465.2" type="curve" smooth="yes"/>
      <point x="915.0" y="343.4"/>
      <point x="936.4" y="186.2"/>
      <point x="974.6" y="82.2" type="curve" smooth="yes"/>
      <point x="990.2" y="40.800000000000004"/>
      <point x="981.0" y="-9.0"/>
      <point x="932.4" y="-9.0" type="curve" smooth="yes"/>
      <point x="882.6" y="-9.0"/>
      <point x="835.4" y="11.2"/>
      <point x="803.8" y="67.4" type="curve" smooth="yes"/>
      <point x="759.2" y="143.8"/>
      <point x="755.4" y="307.4"/>
      <point x="745.6" y="411.8" type="curve" smooth="yes"/>
      <point x="740.8" y="473.8"/>
      <point x="731.0" y="521.2"/>
      <point x="704.4" y="566.2" type="curve" smooth="yes"/>
      <point x="680.2" y="604.0"/>
      <point x="812.2" y="598.4"/>
      <point x="768.2" y="542.8" type="curve" smooth="yes"/>
      <point x="719.4" y="481.6"/>
      <point x="680.8" y="275.8"/>
      <point x="588.2" y="40.2" type="curve" smooth="yes"/>
      <point x="574.8" y="6.2"/>
      <point x="546.0" y="-9.0"/>
      <point x="522.0" y="-9.0" type="curve" smooth="yes"/>
      <point x="502.0" y="-9.0"/>
      <point x="473.0" y="2.0"/>
      <point x="457.6" y="24.2" type="curve" smooth="yes"/>
      <point x="415.4" y="83.4"/>
      <point x="389.2" y="191.8"/>
      <point x="374.4" y="315.4" type="curve" smooth="yes"/>
      <point x="365.0" y="394.8"/>
      <point x="354.8" y="445.4"/>
      <point x="331.4" y="507.0" type="curve" smooth="yes"/>
      <point x="305.2" y="580.8"/>
      <point x="387.2" y="580.8"/>
      <point x="339.4" y="505.0" type="curve" smooth="yes"/>
      <point x="281.0" y="403.2"/>
      <point x="232.0" y="233.4"/>
      <point x="232.0" y="25.6" type="curve" smooth="yes"/>
      <point x="232.0" y="2.0"/>
      <point x="208.0" y="-12.0"/>
      <point x="185.6" y="-12.0" type="curve" smooth="yes"/>
      <point x="86.0" y="-12.0"/>
      <point x="76.19999999999999" y="111.80000000000001"/>
      <point x="76.19999999999999" y="222.0" type="curve" smooth="yes"/>
      <point x="76.19999999999999" y="314.4"/>
      <point x="84.6" y="398.6"/>
      <point x="84.6" y="476.4" type="curve" smooth="yes"/>
      <point x="84.6" y="548.2"/>
      <point x="68.2" y="592.4"/>
      <point x="68.2" y="630.0" type="curve" smooth="yes"/>
      <point x="68.2" y="647.8"/>
      <point x="79.6" y="667.2"/>
      <point x="110.2" y="667.2" type="curve" smooth="yes"/>
      <point x="189.6" y="667.2"/>
      <point x="237.8" y="595.8"/>
    </contour>
  </outline>
</glyph>
<glyph name="N" format="2">
  <advance width="773.0"/>
  <unicode hex="004E"/>
  <outline>
    <contour>
      <point x="117.0" y="-14.4" type="curve" smooth="yes"/>
      <point x="146.9052631579" y="-14.4"/>
      <point x="173.2891749304" y="3.8454455896999997"/>
      <point x="180.66666666664" y="29.0" type="curve" smooth="yes"/>
      <point x="208.66666666664" y="114.0"/>
      <point x="219.66666666664" y="217.0"/>
      <point x="219.66666666664" y="342.0" type="curve" smooth="yes"/>
      <point x="219.66666666664" y="397.37500905472"/>
      <point x="218.4" y="441.4"/>
      <point x="213.4" y="535.4" type="curve"/>
      <point x="180.33333333336" y="530.66666666664" type="line"/>
      <point x="351.33333333336" y="299.33333333336"/>
      <point x="398.0" y="-16.66666666664"/>
      <point x="567.0" y="-16.66666666664" type="curve" smooth="yes"/>
      <point x="679.6666666666399" y="-16.66666666664"/>
      <point x="698.0" y="92.03372243839999"/>
      <point x="698.0" y="242.0" type="curve" smooth="yes"/>
      <point x="698.0" y="391.0"/>
      <point x="679.0" y="480.66666666664"/>
      <point x="705.0" y="609.6666666666399" type="curve" smooth="yes"/>
      <point x="713.34822397578" y="650.7453743484"/>
      <point x="697.5213675213399" y="711.6666666666399"/>
      <point x="627.3333333333601" y="711.6666666666399" type="curve" smooth="yes"/>
      <point x="595.79569892476" y="711.6666666666399"/>
      <point x="583.3024910197" y="697.1923398996599"/>
      <point x="575.0" y="660.0" type="curve" smooth="yes"/>
      <point x="548.0" y="538.0"/>
      <point x="560.0" y="394.0"/>
      <point x="560.0" y="237.0" type="curve" smooth="yes"/>
      <point x="560.0" y="149.0"/>
      <point x="535.0" y="120.0"/>
      <point x="508.66666666664" y="99.33333333336" type="curve"/>
      <point x="566.6666666666399" y="120.0" type="line"/>
      <point x="490.0" y="144.0"/>
      <point x="323.33333333336" y="716.6666666666399"/>
      <point x="156.0" y="716.6666666666399" type="curve" smooth="yes"/>
      <point x="97.33333333336" y="716.6666666666399"/>
      <point x="67.0" y="681.9307359307601"/>
      <point x="67.0" y="638.0" type="curve" smooth="yes"/>
      <point x="67.0" y="605.0"/>
      <point x="83.0" y="457.0"/>
      <point x="83.0" y="342.0" type="curve" smooth="yes"/>
      <point x="83.0" y="154.45051903114"/>
      <point x="53.4" y="118.4"/>
      <point x="53.4" y="73.4" type="curve" smooth="yes"/>
      <point x="53.4" y="20.8"/>
      <point x="76.53846153846" y="-14.4"/>
    </contour>
  </outline>
</glyph>
<glyph name="O" format="2">
  <advance width="734.0"/>
  <unicode hex="004F"/>
  <outline>
    <contour>
      <point x="315.2" y="498.2" type="curve" smooth="yes"/>
      <point x="229.8" y="432.2"/>
      <point x="192.0" y="379.0"/>
      <point x="192.0" y="290.0" type="curve" smooth="yes"/>
      <point x="192.0" y="197.0"/>
      <point x="256.2" y="142.4"/>
      <point x="351.0" y="142.4" type="curve" smooth="yes"/>
      <point x="455.2" y="142.4"/>
      <point x="542.0" y="209.4"/>
      <point x="542.0" y="300.0" type="curve" smooth="yes"/>
      <point x="542.0" y="413.2"/>
      <point x="462.4" y="559.6"/>
      <point x="365.0" y="559.6" type="curve" smooth="yes"/>
      <point x="350.8" y="559.6"/>
      <point x="346.2" y="545.8"/>
      <point x="346.2" y="527.2" type="curve" smooth="yes"/>
      <point x="346.2" y="497.2"/>
      <point x="329.2" y="482.2"/>
      <point x="311.2" y="482.2" type="curve" smooth="yes"/>
      <point x="264.4" y="482.2"/>
      <point x="216.6" y="522.2"/>
      <point x="216.6" y="600.8" type="curve" smooth="yes"/>
      <point x="216.6" y="658.6"/>
      <point x="267.8" y="711.0"/>
      <point x="358.0" y="711.0" type="curve" smooth="yes"/>
      <point x="549.2" y="711.0"/>
      <point x="692.0" y="499.6"/>
      <point x="692.0" y="300.0" type="curve" smooth="yes"/>
      <point x="692.0" y="130.2"/>
      <point x="535.0" y="-10.0"/>
      <point x="351.0" y="-10.0" type="curve" smooth="yes"/>
      <point x="177.2" y="-10.0"/>
      <point x="42.0" y="114.2"/>
      <point x="42.0" y="290.0" type="curve" smooth="yes"/>
      <point x="42.0" y="494.2"/>
      <point x="225.0" y="623.4"/>
      <point x="265.4" y="623.4" type="curve" smooth="yes"/>
      <point x="281.4" y="623.4"/>
      <point x="309.4" y="614.2"/>
      <point x="322.6" y="597.2" type="curve" smooth="yes"/>
      <point x="344.4" y="568.2"/>
      <point x="344.6" y="520.8"/>
    </contour>
  </outline>
</glyph>
<glyph name="P" format="2">
  <advance width="638.0"/>
  <unicode hex="0050"/>
  <outline>
    <contour>
      <point x="91.6" y="117.4" type="curve" smooth="yes"/>
      <point x="91.6" y="25.6"/>
      <point x="132.8" y="-10.0"/>
      <point x="193.4" y="-10.0" type="curve" smooth="yes"/>
      <point x="236.8" y="-10.0"/>
      <point x="247.4" y="28.8"/>
      <point x="247.4" y="109.0" type="curve" smooth="yes"/>
      <point x="247.4" y="264.2"/>
      <point x="199.2" y="361.0"/>
      <point x="199.2" y="466.0" type="curve" smooth="yes"/>
      <point x="199.2" y="523.4"/>
      <point x="245.8" y="555.0"/>
      <point x="338.0" y="555.0" type="curve" smooth="yes"/>
      <point x="390.6" y="555.0"/>
      <point x="440.4" y="530.6"/>
      <point x="440.4" y="480.0" type="curve" smooth="yes"/>
      <point x="440.4" y="412.2"/>
      <point x="362.6" y="340.0"/>
      <point x="278.4" y="340.0" type="curve" smooth="yes"/>
      <point x="221.0" y="340.0"/>
      <point x="209.0" y="358.0"/>
      <point x="183.6" y="358.0" type="curve" smooth="yes"/>
      <point x="153.4" y="358.0"/>
      <point x="129.4" y="338.8"/>
      <point x="129.4" y="303.0" type="curve" smooth="yes"/>
      <point x="129.4" y="243.2"/>
      <point x="195.4" y="187.0"/>
      <point x="284.6" y="187.0" type="curve" smooth="yes"/>
      <point x="454.4" y="187.0"/>
      <point x="592.2" y="336.8"/>
      <point x="592.2" y="480.0" type="curve" smooth="yes"/>
      <point x="592.2" y="625.0"/>
      <point x="477.4" y="708.0"/>
      <point x="337.4" y="708.0" type="curve" smooth="yes"/>
      <point x="126.6" y="708.0"/>
      <point x="47.4" y="611.6"/>
      <point x="47.4" y="466.0" type="curve" smooth="yes"/>
      <point x="47.4" y="357.4"/>
      <point x="91.6" y="292.6"/>
    </contour>
  </outline>
</glyph>
<glyph name="Q" format="2">
  <advance width="754.4"/>
  <unicode hex="0051"/>
  <outline>
    <contour>
      <point x="485.0" y="261.4" type="curve" smooth="yes"/>
      <point x="513.4" y="223.0"/>
      <point x="556.2" y="83.6"/>
      <point x="623.0" y="-0.5999999999999943" type="curve" smooth="yes"/>
      <point x="672.2" y="-63.8"/>
      <point x="659.8" y="-155.2"/>
      <point x="607.8" y="-155.2" type="curve" smooth="yes"/>
      <point x="577.8" y="-155.2"/>
      <point x="554.0" y="-145.0"/>
      <point x="520.8" y="-108.2" type="curve" smooth="yes"/>
      <point x="456.4" y="-36.6"/>
      <point x="401.8" y="131.8"/>
      <point x="342.2" y="214.8" type="curve" smooth="yes"/>
      <point x="302.0" y="270.6"/>
      <point x="315.8" y="316.8"/>
      <point x="368.4" y="316.8" type="curve" smooth="yes"/>
      <point x="430.2" y="316.8"/>
      <point x="459.0" y="295.8"/>
    </contour>
    <contour>
      <point x="302.8" y="523.0" type="curve" smooth="yes"/>
      <point x="232.4" y="485.4"/>
      <point x="192.2" y="395.4"/>
      <point x="192.2" y="313.0" type="curve" smooth="yes"/>
      <point x="192.2" y="225.4"/>
      <point x="242.6" y="144.0"/>
      <point x="380.0" y="144.0" type="curve" smooth="yes"/>
      <point x="490.0" y="144.0"/>
      <point x="558.6" y="227.8"/>
      <point x="558.6" y="315.0" type="curve" smooth="yes"/>
      <point x="558.6" y="424.8"/>
      <point x="493.8" y="548.0"/>
      <point x="404.0" y="548.0" type="curve" smooth="yes"/>
      <point x="357.4" y="548.0"/>
      <point x="325.6" y="519.6"/>
      <point x="299.0" y="467.8" type="curve" smooth="yes"/>
      <point x="283.0" y="436.8"/>
      <point x="268.0" y="426.8"/>
      <point x="245.0" y="426.8" type="curve" smooth="yes"/>
      <point x="200.2" y="426.8"/>
      <point x="177.6" y="447.8"/>
      <point x="177.6" y="497.4" type="curve" smooth="yes"/>
      <point x="177.6" y="587.2"/>
      <point x="297.8" y="709.0"/>
      <point x="419.0" y="709.0" type="curve" smooth="yes"/>
      <point x="577.6" y="709.0"/>
      <point x="712.0" y="546.0"/>
      <point x="712.0" y="327.0" type="curve" smooth="yes"/>
      <point x="712.0" y="153.6"/>
      <point x="587.8" y="-9.0"/>
      <point x="380.0" y="-9.0" type="curve" smooth="yes"/>
      <point x="131.8" y="-9.0"/>
      <point x="42.0" y="144.0"/>
      <point x="42.0" y="313.0" type="curve" smooth="yes"/>
      <point x="42.0" y="504.4"/>
      <point x="188.6" y="655.6"/>
      <point x="269.0" y="655.6" type="curve" smooth="yes"/>
      <point x="304.8" y="655.6"/>
      <point x="352.8" y="621.4"/>
      <point x="352.8" y="584.4" type="curve" smooth="yes"/>
      <point x="352.8" y="559.4"/>
      <point x="345.2" y="545.4"/>
    </contour>
  </outline>
</glyph>
<glyph name="R" format="2">
  <advance width="744.8"/>
  <unicode hex="0052"/>
  <outline>
    <contour>
      <point x="108.2" y="666.2" type="curve" smooth="yes"/>
      <point x="57.4" y="666.2"/>
      <point x="40.599999999999994" y="629.8"/>
      <point x="54.4" y="584.4" type="curve" smooth="yes"/>
      <point x="83.0" y="489.8"/>
      <point x="104.8" y="427.6"/>
      <point x="103.4" y="329.4" type="curve"/>
      <point x="68.4" y="246.4"/>
      <point x="52.4" y="176.2"/>
      <point x="52.4" y="122.0" type="curve" smooth="yes"/>
      <point x="52.4" y="30.8"/>
      <point x="114.4" y="-13.0"/>
      <point x="163.6" y="-13.0" type="curve" smooth="yes"/>
      <point x="200.2" y="-13.0"/>
      <point x="213.8" y="1.4000000000000004"/>
      <point x="213.8" y="48.8" type="curve" smooth="yes"/>
      <point x="213.8" y="443.8"/>
      <point x="433.6" y="557.0"/>
      <point x="497.4" y="557.0" type="curve" smooth="yes"/>
      <point x="522.4" y="557.0"/>
      <point x="532.0" y="544.8"/>
      <point x="532.0" y="525.4" type="curve" smooth="yes"/>
      <point x="532.0" y="475.4"/>
      <point x="451.8" y="371.2"/>
      <point x="214.4" y="314.6" type="curve" smooth="yes"/>
      <point x="174.6" y="305.0"/>
      <point x="161.2" y="237.4"/>
      <point x="184.2" y="206.4" type="curve" smooth="yes"/>
      <point x="263.2" y="104.4"/>
      <point x="526.8" y="-12.0"/>
      <point x="601.6" y="-12.0" type="curve" smooth="yes"/>
      <point x="670.4" y="-12.0"/>
      <point x="716.0" y="24.200000000000003"/>
      <point x="716.0" y="70.2" type="curve" smooth="yes"/>
      <point x="716.0" y="98.0"/>
      <point x="690.0" y="115.4"/>
      <point x="630.0" y="130.4" type="curve" smooth="yes"/>
      <point x="545.6" y="153.4"/>
      <point x="454.0" y="189.4"/>
      <point x="377.2" y="232.8" type="curve"/>
      <point x="575.2" y="296.2"/>
      <point x="685.2" y="410.0"/>
      <point x="685.2" y="532.8" type="curve" smooth="yes"/>
      <point x="685.2" y="631.8"/>
      <point x="633.8" y="710.0"/>
      <point x="508.8" y="710.0" type="curve" smooth="yes"/>
      <point x="390.0" y="710.0"/>
      <point x="280.4" y="636.2"/>
      <point x="213.8" y="509.8" type="curve"/>
      <point x="237.0" y="511.6" type="line"/>
      <point x="215.2" y="626.6"/>
      <point x="179.8" y="666.2"/>
    </contour>
  </outline>
</glyph>
<glyph name="S" format="2">
  <advance width="551.0"/>
  <unicode hex="0053"/>
  <outline>
    <contour>
      <point x="215.33333333336" y="-9.0" type="curve" smooth="yes"/>
      <point x="371.86394557826" y="-9.0"/>
      <point x="522.4" y="36.0"/>
      <point x="522.4" y="151.0" type="curve" smooth="yes"/>
      <point x="522.4" y="288.0"/>
      <point x="181.0" y="356.2"/>
      <point x="181.0" y="443.0" type="curve" smooth="yes"/>
      <point x="181.0" y="483.6"/>
      <point x="287.38530850856" y="544.3449695666001"/>
      <point x="459.0" y="582.6666666666399" type="curve" smooth="yes"/>
      <point x="492.02930639178" y="589.67288317398"/>
      <point x="503.0" y="607.40425531916"/>
      <point x="503.0" y="642.6666666666399" type="curve" smooth="yes"/>
      <point x="503.0" y="677.85365853656"/>
      <point x="480.33333333336" y="710.0"/>
      <point x="434.0" y="710.0" type="curve" smooth="yes"/>
      <point x="310.33333333336" y="710.0"/>
      <point x="40.599999999999994" y="589.0"/>
      <point x="40.599999999999994" y="447.0" type="curve" smooth="yes"/>
      <point x="40.599999999999994" y="258.13865814696"/>
      <point x="354.0" y="198.4"/>
      <point x="365.2" y="153.0" type="curve"/>
      <point x="346.6" y="137.8"/>
      <point x="283.67408965852" y="127.66666666664001"/>
      <point x="206.33333333336" y="127.66666666664001" type="curve" smooth="yes"/>
      <point x="129.33333333336" y="127.66666666664001"/>
      <point x="114.82608695648" y="132.66666666664003"/>
      <point x="78.0" y="132.66666666664003" type="curve" smooth="yes"/>
      <point x="51.0" y="132.66666666664003"/>
      <point x="42.0" y="118.42857142854001"/>
      <point x="42.0" y="94.33333333336" type="curve" smooth="yes"/>
      <point x="42.0" y="30.083333333360002"/>
      <point x="99.41666666664" y="-9.0"/>
    </contour>
  </outline>
</glyph>
<glyph name="T" format="2">
  <advance width="635.0"/>
  <unicode hex="0054"/>
  <outline>
    <contour>
      <point x="224.6" y="577.6" type="curve" smooth="yes"/>
      <point x="200.6" y="295.6"/>
      <point x="200.6" y="190.0"/>
      <point x="225.6" y="85.8" type="curve" smooth="yes"/>
      <point x="245.8" y="9.0"/>
      <point x="286.0" y="-13.0"/>
      <point x="333.0" y="-13.0" type="curve" smooth="yes"/>
      <point x="368.8" y="-13.0"/>
      <point x="387.8" y="2.0"/>
      <point x="387.8" y="45.0" type="curve" smooth="yes"/>
      <point x="387.8" y="84.8"/>
      <point x="356.2" y="167.0"/>
      <point x="378.6" y="520.0" type="curve" smooth="yes"/>
      <point x="383.6" y="608.0"/>
      <point x="360.6" y="644.0"/>
      <point x="288.0" y="644.0" type="curve" smooth="yes"/>
      <point x="251.8" y="644.0"/>
      <point x="227.39999999999998" y="616.4"/>
    </contour>
    <contour>
      <point x="117.2" y="562.2" type="curve" smooth="yes"/>
      <point x="231.6" y="552.6"/>
      <point x="329.8" y="552.4"/>
      <point x="469.0" y="552.4" type="curve" smooth="yes"/>
      <point x="536.2" y="552.4"/>
      <point x="606.0" y="582.8"/>
      <point x="606.0" y="656.2" type="curve" smooth="yes"/>
      <point x="606.0" y="688.8"/>
      <point x="588.0" y="711.0"/>
      <point x="550.0" y="711.0" type="curve" smooth="yes"/>
      <point x="477.4" y="711.0"/>
      <point x="436.2" y="700.0"/>
      <point x="366.4" y="700.0" type="curve" smooth="yes"/>
      <point x="265.8" y="700.0"/>
      <point x="183.4" y="709.2"/>
      <point x="60.0" y="709.2" type="curve" smooth="yes"/>
      <point x="24.0" y="709.2"/>
      <point x="9.799999999999997" y="685.8"/>
      <point x="9.799999999999997" y="657.8" type="curve" smooth="yes"/>
      <point x="9.799999999999997" y="600.68181818182"/>
      <point x="34.4" y="569.0"/>
    </contour>
  </outline>
</glyph>
<glyph name="U" format="2">
  <advance width="673.2"/>
  <unicode hex="0055"/>
  <outline>
    <contour>
      <point x="358.2" y="-13.0" type="curve" smooth="yes"/>
      <point x="543.4" y="-13.0"/>
      <point x="626.6" y="114.0"/>
      <point x="626.6" y="298.0" type="curve" smooth="yes"/>
      <point x="626.6" y="379.8"/>
      <point x="618.4" y="446.6"/>
      <point x="618.4" y="518.2" type="curve" smooth="yes"/>
      <point x="618.4" y="571.6"/>
      <point x="628.0" y="629.4"/>
      <point x="628.0" y="647.2" type="curve" smooth="yes"/>
      <point x="628.0" y="684.4"/>
      <point x="593.2" y="712.0"/>
      <point x="558.0" y="712.0" type="curve" smooth="yes"/>
      <point x="501.4" y="712.0"/>
      <point x="462.0" y="675.2"/>
      <point x="462.0" y="615.0" type="curve" smooth="yes"/>
      <point x="462.0" y="498.0"/>
      <point x="470.0" y="429.0"/>
      <point x="470.0" y="305.0" type="curve" smooth="yes"/>
      <point x="470.0" y="184.8"/>
      <point x="431.2" y="142.60000000000002"/>
      <point x="351.2" y="142.60000000000002" type="curve" smooth="yes"/>
      <point x="266.6" y="142.60000000000002"/>
      <point x="221.60000000000002" y="180.4"/>
      <point x="221.60000000000002" y="333.4" type="curve" smooth="yes"/>
      <point x="221.60000000000002" y="395.2"/>
      <point x="230.2" y="479.6"/>
      <point x="230.2" y="538.8" type="curve" smooth="yes"/>
      <point x="230.2" y="676.2"/>
      <point x="182.0" y="715.2"/>
      <point x="121.8" y="715.2" type="curve" smooth="yes"/>
      <point x="91.6" y="715.2"/>
      <point x="46.2" y="705.0"/>
      <point x="46.2" y="671.2" type="curve" smooth="yes"/>
      <point x="46.2" y="616.4"/>
      <point x="66.2" y="603.6"/>
      <point x="66.2" y="489.0" type="curve" smooth="yes"/>
      <point x="66.2" y="451.8"/>
      <point x="61.2" y="395.8"/>
      <point x="61.2" y="341.0" type="curve" smooth="yes"/>
      <point x="61.2" y="128.4"/>
      <point x="147.4" y="-13.0"/>
    </contour>
  </outline>
</glyph>
<glyph name="V" format="2">
  <advance width="684.2"/>
  <unicode hex="0056"/>
  <outline>
    <contour>
      <point x="350.0" y="-11.8" type="curve" smooth="yes"/>
      <point x="398.0" y="-11.8"/>
      <point x="416.2" y="13.200000000000001"/>
      <point x="431.6" y="65.8" type="curve" smooth="yes"/>
      <point x="488.6" y="249.6"/>
      <point x="552.4" y="366.2"/>
      <point x="640.8" y="512.6" type="curve" smooth="yes"/>
      <point x="671.6" y="563.8"/>
      <point x="677.4" y="576.4"/>
      <point x="677.4" y="621.6" type="curve" smooth="yes"/>
      <point x="677.4" y="672.4"/>
      <point x="650.4" y="713.8"/>
      <point x="605.0" y="713.8" type="curve" smooth="yes"/>
      <point x="576.8" y="713.8"/>
      <point x="555.6" y="707.8"/>
      <point x="509.4" y="636.2" type="curve" smooth="yes"/>
      <point x="420.8" y="498.4"/>
      <point x="351.6" y="349.6"/>
      <point x="304.8" y="170.0" type="curve"/>
      <point x="346.2" y="218.60000000000002" type="line"/>
      <point x="278.2" y="318.6"/>
      <point x="254.2" y="546.0"/>
      <point x="164.8" y="660.8" type="curve" smooth="yes"/>
      <point x="135.2" y="699.2"/>
      <point x="110.0" y="710.8"/>
      <point x="79.4" y="710.8" type="curve" smooth="yes"/>
      <point x="29.4" y="710.8"/>
      <point x="7.199999999999996" y="676.2"/>
      <point x="7.199999999999996" y="640.0" type="curve" smooth="yes"/>
      <point x="7.199999999999996" y="601.2"/>
      <point x="29.4" y="571.8"/>
      <point x="52.599999999999994" y="537.6" type="curve" smooth="yes"/>
      <point x="123.4" y="433.8"/>
      <point x="113.19999999999999" y="296.0"/>
      <point x="232.4" y="82.8" type="curve" smooth="yes"/>
      <point x="272.0" y="11.0"/>
      <point x="297.2" y="-11.8"/>
    </contour>
  </outline>
</glyph>
<glyph name="W" format="2">
  <advance width="993.6"/>
  <unicode hex="0057"/>
  <outline>
    <contour>
      <point x="210.2" y="622.6" type="curve" smooth="yes"/>
      <point x="207.2" y="672.6"/>
      <point x="168.4" y="712.0"/>
      <point x="92.6" y="712.0" type="curve" smooth="yes"/>
      <point x="51.8" y="712.0"/>
      <point x="36.4" y="678.4"/>
      <point x="39.2" y="637.4" type="curve" smooth="yes"/>
      <point x="51.599999999999994" y="453.6"/>
      <point x="105.6" y="237.60000000000002"/>
      <point x="171.6" y="77.0" type="curve" smooth="yes"/>
      <point x="202.2" y="2.8"/>
      <point x="239.0" y="-8.0"/>
      <point x="265.6" y="-8.0" type="curve" smooth="yes"/>
      <point x="305.0" y="-8.0"/>
      <point x="325.8" y="12.6"/>
      <point x="337.8" y="55.6" type="curve" smooth="yes"/>
      <point x="384.2" y="226.2"/>
      <point x="437.8" y="379.8"/>
      <point x="516.4" y="471.4" type="curve" smooth="yes"/>
      <point x="537.6" y="495.4"/>
      <point x="445.2" y="517.0"/>
      <point x="468.0" y="487.2" type="curve" smooth="yes"/>
      <point x="536.0" y="399.6"/>
      <point x="558.2" y="168.4"/>
      <point x="640.4" y="59.2" type="curve" smooth="yes"/>
      <point x="679.6" y="6.800000000000001"/>
      <point x="710.2" y="-12.0"/>
      <point x="758.0" y="-12.0" type="curve" smooth="yes"/>
      <point x="781.8" y="-12.0"/>
      <point x="805.8" y="-0.6000000000000001"/>
      <point x="823.6" y="42.0" type="curve" smooth="yes"/>
      <point x="884.2" y="192.0"/>
      <point x="899.8" y="427.2"/>
      <point x="944.4" y="571.4" type="curve" smooth="yes"/>
      <point x="963.2" y="633.8"/>
      <point x="949.4" y="712.0"/>
      <point x="862.0" y="712.0" type="curve" smooth="yes"/>
      <point x="835.0" y="712.0"/>
      <point x="814.6" y="703.4"/>
      <point x="798.2" y="669.0" type="curve" smooth="yes"/>
      <point x="764.2" y="597.6"/>
      <point x="744.8" y="333.20000000000005"/>
      <point x="697.6" y="205.20000000000002" type="curve" smooth="yes"/>
      <point x="677.0" y="144.0"/>
      <point x="808.2" y="123.80000000000001"/>
      <point x="767.4" y="178.0" type="curve" smooth="yes"/>
      <point x="680.8" y="301.6"/>
      <point x="655.8" y="501.8"/>
      <point x="618.8" y="573.0" type="curve" smooth="yes"/>
      <point x="590.6" y="630.0"/>
      <point x="564.0" y="652.0"/>
      <point x="511.0" y="652.0" type="curve" smooth="yes"/>
      <point x="470.6" y="652.0"/>
      <point x="438.2" y="629.0"/>
      <point x="405.8" y="588.2" type="curve" smooth="yes"/>
      <point x="340.6" y="504.4"/>
      <point x="282.4" y="383.2"/>
      <point x="227.0" y="195.20000000000002" type="curve" smooth="yes"/>
      <point x="213.4" y="149.20000000000002"/>
      <point x="311.8" y="148.2"/>
      <point x="273.6" y="264.6" type="curve" smooth="yes"/>
      <point x="237.4" y="378.0"/>
      <point x="219.2" y="490.6"/>
    </contour>
  </outline>
</glyph>
<glyph name="X" format="2">
  <advance width="674.2"/>
  <unicode hex="0058"/>
  <outline>
    <contour>
      <point x="227.0" y="645.0" type="curve" smooth="yes"/>
      <point x="310.0" y="406.2"/>
      <point x="507.2" y="297.0"/>
      <point x="597.2" y="173.4" type="curve" smooth="yes"/>
      <point x="672.8" y="72.2"/>
      <point x="621.6" y="-10.8"/>
      <point x="548.6" y="-10.8" type="curve" smooth="yes"/>
      <point x="513.4" y="-10.8"/>
      <point x="479.8" y="9.0"/>
      <point x="450.6" y="58.2" type="curve" smooth="yes"/>
      <point x="377.0" y="184.2"/>
      <point x="105.6" y="405.2"/>
      <point x="53.4" y="560.6" type="curve" smooth="yes"/>
      <point x="16.0" y="668.0"/>
      <point x="42.2" y="712.2"/>
      <point x="131.0" y="712.2" type="curve" smooth="yes"/>
      <point x="181.2" y="712.2"/>
      <point x="216.4" y="676.0"/>
    </contour>
    <contour>
      <point x="598.0" y="554.0" type="curve" smooth="yes"/>
      <point x="473.4" y="424.0"/>
      <point x="285.8" y="223.2"/>
      <point x="189.2" y="47.400000000000006" type="curve" smooth="yes"/>
      <point x="167.2" y="7.4"/>
      <point x="149.60000000000002" y="-6.6"/>
      <point x="113.80000000000001" y="-6.6" type="curve" smooth="yes"/>
      <point x="58.2" y="-6.6"/>
      <point x="29.4" y="71.4"/>
      <point x="90.2" y="170.4" type="curve" smooth="yes"/>
      <point x="219.4" y="381.6"/>
      <point x="382.8" y="579.0"/>
      <point x="482.0" y="668.8" type="curve" smooth="yes"/>
      <point x="512.4" y="697.2"/>
      <point x="531.6" y="707.4"/>
      <point x="560.4" y="707.4" type="curve" smooth="yes"/>
      <point x="616.0" y="707.4"/>
      <point x="662.2" y="620.0"/>
    </contour>
  </outline>
</glyph>
<glyph name="Y" format="2">
  <advance width="629.0"/>
  <unicode hex="0059"/>
  <outline>
    <contour>
      <point x="562.8" y="550.0" type="curve" smooth="yes"/>
      <point x="435.2" y="444.4"/>
      <point x="327.2" y="222.2"/>
      <point x="287.2" y="33.6" type="curve" smooth="yes"/>
      <point x="279.8" y="-0.3999999999999999"/>
      <point x="259.8" y="-14.0"/>
      <point x="222.0" y="-14.0" type="curve" smooth="yes"/>
      <point x="168.8" y="-14.0"/>
      <point x="142.4" y="36.8"/>
      <point x="158.8" y="117.0" type="curve" smooth="yes"/>
      <point x="191.6" y="286.4"/>
      <point x="318.4" y="545.8"/>
      <point x="483.4" y="684.8" type="curve" smooth="yes"/>
      <point x="511.0" y="708.0"/>
      <point x="526.0" y="713.0"/>
      <point x="541.0" y="713.0" type="curve" smooth="yes"/>
      <point x="576.4" y="713.0"/>
      <point x="602.2" y="678.0"/>
      <point x="602.2" y="633.4" type="curve" smooth="yes"/>
      <point x="602.2" y="601.4"/>
      <point x="595.0" y="578.4"/>
    </contour>
    <contour>
      <point x="149.6" y="662.2" type="curve" smooth="yes"/>
      <point x="221.6" y="533.6"/>
      <point x="260.0" y="523.2"/>
      <point x="338.4" y="370.8" type="curve" smooth="yes"/>
      <point x="359.4" y="328.8"/>
      <point x="340.0" y="255.4"/>
      <point x="292.8" y="255.4" type="curve" smooth="yes"/>
      <point x="268.4" y="255.4"/>
      <point x="250.0" y="266.6"/>
      <point x="238.4" y="286.8" type="curve" smooth="yes"/>
      <point x="147.26324669914" y="438.28534693802"/>
      <point x="108.8" y="451.4"/>
      <point x="44.6" y="543.2" type="curve" smooth="yes"/>
      <point x="24.2" y="573.4"/>
      <point x="13.799999999999999" y="598.4"/>
      <point x="13.799999999999999" y="636.0" type="curve" smooth="yes"/>
      <point x="13.799999999999999" y="680.2"/>
      <point x="39.2" y="710.4"/>
      <point x="72.2" y="710.4" type="curve" smooth="yes"/>
      <point x="104.0" y="710.4"/>
      <point x="127.0" y="702.0"/>
    </contour>
  </outline>
</glyph>
<glyph name="Z" format="2">
  <advance width="672.0"/>
  <unicode hex="005A"/>
  <outline>
    <contour>
      <point x="91.0" y="678.6" type="curve" smooth="yes"/>
      <point x="182.6" y="700.0"/>
      <point x="272.4" y="710.0"/>
      <point x="360.0" y="710.0" type="curve" smooth="yes"/>
      <point x="564.4" y="710.0"/>
      <point x="616.0" y="634.8"/>
      <point x="616.0" y="553.6" type="curve" smooth="yes"/>
      <point x="616.0" y="452.0"/>
      <point x="588.0" y="412.2"/>
      <point x="388.4" y="294.4" type="curve" smooth="yes"/>
      <point x="214.2" y="190.6"/>
      <point x="209.4" y="174.8"/>
      <point x="195.4" y="117.60000000000001" type="curve" smooth="yes"/>
      <point x="184.8" y="87.4"/>
      <point x="127.4" y="164.60000000000002"/>
      <point x="158.6" y="150.60000000000002" type="curve" smooth="yes"/>
      <point x="182.6" y="139.8"/>
      <point x="204.4" y="135.60000000000002"/>
      <point x="240.4" y="135.60000000000002" type="curve" smooth="yes"/>
      <point x="306.4" y="135.60000000000002"/>
      <point x="386.2" y="152.4"/>
      <point x="469.0" y="152.4" type="curve" smooth="yes"/>
      <point x="568.8" y="152.4"/>
      <point x="648.0" y="127.60000000000001"/>
      <point x="648.0" y="46.2" type="curve" smooth="yes"/>
      <point x="648.0" y="13.200000000000001"/>
      <point x="625.0" y="-7.0"/>
      <point x="592.2" y="-7.0" type="curve" smooth="yes"/>
      <point x="548.6" y="-7.0"/>
      <point x="522.8" y="0.0"/>
      <point x="453.0" y="0.0" type="curve" smooth="yes"/>
      <point x="370.0" y="0.0"/>
      <point x="292.0" y="-10.2"/>
      <point x="225.0" y="-10.2" type="curve" smooth="yes"/>
      <point x="93.0" y="-10.2"/>
      <point x="46.6" y="54.8"/>
      <point x="46.6" y="127.8" type="curve" smooth="yes"/>
      <point x="46.6" y="211.2"/>
      <point x="72.0" y="277.4"/>
      <point x="295.4" y="409.8" type="curve" smooth="yes"/>
      <point x="449.2" y="502.2"/>
      <point x="459.4" y="522.4"/>
      <point x="465.4" y="560.0" type="curve" smooth="yes"/>
      <point x="472.8" y="596.8"/>
      <point x="514.6" y="518.0"/>
      <point x="486.4" y="538.6" type="curve" smooth="yes"/>
      <point x="467.2" y="552.0"/>
      <point x="455.8" y="558.2"/>
      <point x="397.8" y="558.2" type="curve" smooth="yes"/>
      <point x="282.0" y="558.2"/>
      <point x="207.0" y="532.6"/>
      <point x="159.0" y="532.6" type="curve" smooth="yes"/>
      <point x="108.8" y="532.6"/>
      <point x="45.0" y="559.0"/>
      <point x="45.0" y="619.8" type="curve" smooth="yes"/>
      <point x="45.0" y="646.4"/>
      <point x="59.0" y="670.6"/>
    </contour>
  </outline>
</glyph>
<glyph name="a" format="2">
  <advance width="692.0"/>
  <unicode hex="0061"/>
  <outline>
    <contour>
      <point x="371.4" y="393.0" type="curve" smooth="yes"/>
      <point x="376.2" y="424.8"/>
      <point x="404.6" y="443.6"/>
      <point x="434.0" y="443.6" type="curve" smooth="yes"/>
      <point x="484.74285714286" y="443.6"/>
      <point x="523.8" y="412.0"/>
      <point x="538.0" y="371.2" type="curve" smooth="yes"/>
      <point x="572.4" y="274.4"/>
      <point x="588.0" y="208.0"/>
      <point x="659.4" y="127.80000000000001" type="curve" smooth="yes"/>
      <point x="694.2" y="89.6"/>
      <point x="661.2" y="-7.0"/>
      <point x="595.6" y="-7.0" type="curve" smooth="yes"/>
      <point x="572.0" y="-7.0"/>
      <point x="557.6335889067" y="3.36030401936"/>
      <point x="547.4" y="15.6" type="curve" smooth="yes"/>
      <point x="489.93529797796" y="86.23087752754"/>
      <point x="457.0" y="145.0"/>
      <point x="425.0" y="273.6" type="curve"/>
      <point x="478.8" y="278.2" type="line"/>
      <point x="424.99499001898" y="59.95180052748"/>
      <point x="311.4186770428" y="-10.0"/>
      <point x="202.6" y="-10.0" type="curve" smooth="yes"/>
      <point x="102.6" y="-10.0"/>
      <point x="35.0" y="52.4"/>
      <point x="35.0" y="147.0" type="curve" smooth="yes"/>
      <point x="35.0" y="318.47838616714"/>
      <point x="188.35894039736" y="519.6"/>
      <point x="343.0" y="519.6" type="curve" smooth="yes"/>
      <point x="392.6" y="519.6"/>
      <point x="431.4" y="486.8"/>
      <point x="431.4" y="428.0" type="curve" smooth="yes"/>
      <point x="431.4" y="406.6"/>
      <point x="417.6" y="394.6"/>
      <point x="399.8" y="391.0" type="curve" smooth="yes"/>
      <point x="272.60723235808" y="368.38191172518"/>
      <point x="182.8" y="251.3014084507"/>
      <point x="182.8" y="134.2" type="curve" smooth="yes"/>
      <point x="182.8" y="110.4"/>
      <point x="185.2" y="94.4"/>
      <point x="196.2" y="65.6" type="curve"/>
      <point x="127.4" y="165.2" type="line"/>
      <point x="158.4" y="144.2"/>
      <point x="178.0" y="137.60000000000002"/>
      <point x="207.4" y="137.60000000000002" type="curve" smooth="yes"/>
      <point x="278.0" y="137.60000000000002"/>
      <point x="345.8" y="225.4"/>
    </contour>
  </outline>
</glyph>
<glyph name="b" format="2">
  <advance width="623.0"/>
  <unicode hex="0062"/>
  <outline>
    <contour>
      <point x="212.0" y="703.0" type="curve" smooth="yes"/>
      <point x="212.0" y="645.6012345679"/>
      <point x="195.2" y="568.04923076924"/>
      <point x="195.2" y="461.6" type="curve" smooth="yes"/>
      <point x="195.2" y="409.20344827586"/>
      <point x="193.75235088802" y="370.58777760626003"/>
      <point x="200.4" y="314.0" type="curve" smooth="yes"/>
      <point x="204.20044178992" y="280.39175325482"/>
      <point x="149.4" y="311.6"/>
      <point x="164.4" y="353.0" type="curve" smooth="yes"/>
      <point x="194.0" y="443.2"/>
      <point x="283.78051282052" y="520.2"/>
      <point x="381.4" y="520.2" type="curve" smooth="yes"/>
      <point x="492.61616161616" y="520.2"/>
      <point x="583.0" y="455.00404040404"/>
      <point x="583.0" y="301.0" type="curve" smooth="yes"/>
      <point x="583.0" y="116.65901639344"/>
      <point x="400.83363914374" y="-10.0"/>
      <point x="214.0" y="-10.0" type="curve" smooth="yes"/>
      <point x="136.2" y="-10.0"/>
      <point x="44.4" y="16.8"/>
      <point x="44.4" y="92.2" type="curve" smooth="yes"/>
      <point x="44.4" y="131.66666666666"/>
      <point x="73.6" y="150.2"/>
      <point x="116.4" y="150.2" type="curve" smooth="yes"/>
      <point x="139.8" y="150.2"/>
      <point x="171.6" y="141.4"/>
      <point x="202.0" y="141.4" type="curve" smooth="yes"/>
      <point x="296.71764705882" y="141.4"/>
      <point x="428.0" y="192.3092369478"/>
      <point x="428.0" y="310.0" type="curve" smooth="yes"/>
      <point x="428.0" y="343.6243902439"/>
      <point x="416.74626865672" y="367.8"/>
      <point x="379.0" y="367.8" type="curve" smooth="yes"/>
      <point x="285.0" y="367.8"/>
      <point x="223.62841268524" y="274.74371806152"/>
      <point x="197.0" y="142.0" type="curve" smooth="yes"/>
      <point x="191.2" y="114.2"/>
      <point x="175.6" y="97.80000000000001"/>
      <point x="150.2" y="97.80000000000001" type="curve" smooth="yes"/>
      <point x="117.0" y="97.80000000000001"/>
      <point x="85.6" y="125.80000000000001"/>
      <point x="77.0" y="174.0" type="curve" smooth="yes"/>
      <point x="58.66734382256" y="277.54008183208"/>
      <point x="48.0" y="389.15185185186"/>
      <point x="48.0" y="452.0" type="curve" smooth="yes"/>
      <point x="48.0" y="610.14371257486"/>
      <point x="71.34263206092" y="673.19538931466"/>
      <point x="64.0" y="754.4" type="curve" smooth="yes"/>
      <point x="61.20995317774" y="785.6954916338"/>
      <point x="74.0" y="810.6"/>
      <point x="106.4" y="810.6" type="curve" smooth="yes"/>
      <point x="159.2975609756" y="810.6"/>
      <point x="212.0" y="772.27164179104"/>
    </contour>
  </outline>
</glyph>
<glyph name="c" format="2">
  <advance width="538.0"/>
  <unicode hex="0063"/>
  <outline>
    <contour>
      <point x="484.0" y="137.2" type="curve" smooth="yes"/>
      <point x="484.0" y="188.0"/>
      <point x="469.0" y="207.2"/>
      <point x="437.4" y="207.2" type="curve" smooth="yes"/>
      <point x="388.2" y="207.2"/>
      <point x="396.6" y="144.0"/>
      <point x="282.8" y="144.0" type="curve" smooth="yes"/>
      <point x="204.8" y="144.0"/>
      <point x="183.2" y="174.29898989898"/>
      <point x="183.2" y="215.0" type="curve" smooth="yes"/>
      <point x="183.2" y="291.65454545454"/>
      <point x="255.8" y="367.8"/>
      <point x="355.0" y="367.8" type="curve" smooth="yes"/>
      <point x="384.8" y="367.8"/>
      <point x="385.8" y="342.0"/>
      <point x="406.8" y="342.0" type="curve" smooth="yes"/>
      <point x="447.02439024390003" y="342.0"/>
      <point x="468.0" y="379.83157894736"/>
      <point x="468.0" y="428.0" type="curve" smooth="yes"/>
      <point x="468.0" y="502.1"/>
      <point x="416.5" y="519.0"/>
      <point x="365.0" y="519.0" type="curve" smooth="yes"/>
      <point x="185.4" y="519.0"/>
      <point x="32.0" y="386.8"/>
      <point x="32.0" y="220.0" type="curve" smooth="yes"/>
      <point x="32.0" y="85.6"/>
      <point x="124.4" y="-9.0"/>
      <point x="290.0" y="-9.0" type="curve" smooth="yes"/>
      <point x="402.6" y="-9.0"/>
      <point x="484.0" y="45.8"/>
    </contour>
  </outline>
</glyph>
<glyph name="d" format="2">
  <advance width="689.0"/>
  <unicode hex="0064"/>
  <outline>
    <contour>
      <point x="285.0" y="-9.0" type="curve" smooth="yes"/>
      <point x="363.8" y="-9.0"/>
      <point x="469.4" y="50.6"/>
      <point x="515.4" y="219.2" type="curve"/>
      <point x="432.2" y="198.0" type="line"/>
      <point x="429.4" y="85.0"/>
      <point x="489.77798165138" y="-17.6"/>
      <point x="569.0" y="-17.6" type="curve" smooth="yes"/>
      <point x="618.4" y="-17.6"/>
      <point x="651.6" y="24.0"/>
      <point x="651.6" y="61.0" type="curve" smooth="yes"/>
      <point x="651.6" y="102.04"/>
      <point x="575.0" y="92.54"/>
      <point x="575.0" y="296.8" type="curve" smooth="yes"/>
      <point x="575.0" y="427.4990825688"/>
      <point x="603.6" y="509.17155963302"/>
      <point x="611.6" y="661.8" type="curve" smooth="yes"/>
      <point x="616.4" y="758.4"/>
      <point x="578.19" y="810.0"/>
      <point x="504.0" y="810.0" type="curve" smooth="yes"/>
      <point x="475.33636363636" y="810.0"/>
      <point x="454.0" y="794.73150684932"/>
      <point x="454.0" y="744.2" type="curve" smooth="yes"/>
      <point x="454.0" y="358.23318649046"/>
      <point x="379.4" y="144.0"/>
      <point x="279.8" y="144.0" type="curve" smooth="yes"/>
      <point x="241.6" y="144.0"/>
      <point x="194.4" y="213.8"/>
      <point x="194.4" y="279.0" type="curve" smooth="yes"/>
      <point x="194.4" y="335.2"/>
      <point x="240.60000000000002" y="367.6"/>
      <point x="314.2" y="367.6" type="curve" smooth="yes"/>
      <point x="382.8" y="367.6"/>
      <point x="391.35905511812" y="341.6"/>
      <point x="420.4" y="341.6" type="curve" smooth="yes"/>
      <point x="438.64" y="341.6"/>
      <point x="453.2" y="361.6"/>
      <point x="453.2" y="390.4" type="curve" smooth="yes"/>
      <point x="453.2" y="474.2"/>
      <point x="386.0" y="520.6"/>
      <point x="278.0" y="520.6" type="curve" smooth="yes"/>
      <point x="131.8" y="522.2"/>
      <point x="34.0" y="425.06896551724"/>
      <point x="34.0" y="279.0" type="curve" smooth="yes"/>
      <point x="34.0" y="124.0"/>
      <point x="137.2" y="-9.0"/>
    </contour>
  </outline>
</glyph>
<glyph name="e" format="2">
  <advance width="601.0"/>
  <unicode hex="0065"/>
  <outline>
    <contour>
      <point x="252.0" y="184.0" type="curve" smooth="yes"/>
      <point x="393.2" y="184.0"/>
      <point x="510.0" y="235.4"/>
      <point x="510.0" y="349.0" type="curve" smooth="yes"/>
      <point x="510.0" y="460.0"/>
      <point x="431.86242774566" y="519.0"/>
      <point x="319.0" y="519.0" type="curve" smooth="yes"/>
      <point x="141.77419354838" y="519.0"/>
      <point x="29.0" y="354.2"/>
      <point x="29.0" y="210.0" type="curve" smooth="yes"/>
      <point x="29.0" y="82.0"/>
      <point x="105.4" y="-10.0"/>
      <point x="281.0" y="-10.0" type="curve" smooth="yes"/>
      <point x="443.49576271186004" y="-10.0"/>
      <point x="554.4" y="68.4"/>
      <point x="554.4" y="138.8" type="curve" smooth="yes"/>
      <point x="554.4" y="171.6"/>
      <point x="542.4" y="187.8"/>
      <point x="516.2" y="187.8" type="curve" smooth="yes"/>
      <point x="465.4" y="187.8"/>
      <point x="423.0" y="127.8"/>
      <point x="266.8" y="127.8" type="curve" smooth="yes"/>
      <point x="200.09117647058" y="127.8"/>
      <point x="177.60000000000002" y="150.6"/>
      <point x="177.60000000000002" y="189.8" type="curve" smooth="yes"/>
      <point x="177.60000000000002" y="280.8"/>
      <point x="244.63157894736" y="369.8"/>
      <point x="337.6" y="369.8" type="curve" smooth="yes"/>
      <point x="360.48860759494" y="369.8"/>
      <point x="369.8" y="359.8"/>
      <point x="369.8" y="341.0" type="curve" smooth="yes"/>
      <point x="369.8" y="302.0"/>
      <point x="299.66178010472" y="273.0"/>
      <point x="236.0" y="273.0" type="curve" smooth="yes"/>
      <point x="204.0" y="273.0"/>
      <point x="185.8" y="278.6"/>
      <point x="171.6" y="278.6" type="curve" smooth="yes"/>
      <point x="151.0" y="278.6"/>
      <point x="142.6" y="269.2"/>
      <point x="142.6" y="250.2" type="curve" smooth="yes"/>
      <point x="142.6" y="215.6"/>
      <point x="181.8" y="184.0"/>
    </contour>
  </outline>
</glyph>
<glyph name="f" format="2">
  <advance width="436.0"/>
  <unicode hex="0066"/>
  <outline>
    <contour>
      <point x="340.0" y="379.8" type="curve" smooth="yes"/>
      <point x="370.73888888888" y="382.2"/>
      <point x="385.0" y="404.86666666665997"/>
      <point x="385.0" y="431.0" type="curve" smooth="yes"/>
      <point x="385.0" y="482.61395348838"/>
      <point x="338.25" y="512.0"/>
      <point x="299.4" y="512.0" type="curve" smooth="yes"/>
      <point x="252.6" y="512.0"/>
      <point x="208.2" y="505.0"/>
      <point x="151.0" y="486.6" type="curve" smooth="yes"/>
      <point x="107.2" y="471.8"/>
      <point x="83.6" y="433.8"/>
      <point x="83.6" y="389.6" type="curve" smooth="yes"/>
      <point x="83.6" y="356.8695652174"/>
      <point x="116.2" y="334.4"/>
      <point x="153.2" y="334.4" type="curve" smooth="yes"/>
      <point x="184.82511210762" y="334.4"/>
      <point x="213.85470852018" y="371.0"/>
    </contour>
    <contour>
      <point x="180.0" y="-169.0" type="curve" smooth="yes"/>
      <point x="222.07659574468" y="-169.0"/>
      <point x="242.2" y="-148.0"/>
      <point x="242.2" y="-69.4" type="curve" smooth="yes"/>
      <point x="242.2" y="167.46128440366"/>
      <point x="198.60000000000002" y="299.93064220184"/>
      <point x="198.60000000000002" y="441.2" type="curve" smooth="yes"/>
      <point x="198.60000000000002" y="584.6"/>
      <point x="218.0" y="631.4"/>
      <point x="348.6" y="674.8" type="curve" smooth="yes"/>
      <point x="377.4" y="684.8"/>
      <point x="393.0" y="704.02352941176"/>
      <point x="393.0" y="735.0" type="curve" smooth="yes"/>
      <point x="393.0" y="789.0"/>
      <point x="351.8" y="810.0"/>
      <point x="309.4" y="810.0" type="curve" smooth="yes"/>
      <point x="175.4" y="810.0"/>
      <point x="49.4" y="680.0"/>
      <point x="49.4" y="477.0" type="curve" smooth="yes"/>
      <point x="49.4" y="276.19334500876"/>
      <point x="89.0" y="196.9302977233"/>
      <point x="89.0" y="-33.19999999999999" type="curve" smooth="yes"/>
      <point x="89.0" y="-120.65977011494"/>
      <point x="134.18113207548" y="-169.0"/>
    </contour>
  </outline>
</glyph>
<glyph name="g" format="2">
  <advance width="648.0"/>
  <unicode hex="0067"/>
  <outline>
    <contour>
      <point x="462.8" y="466.2" type="curve" smooth="yes"/>
      <point x="524.81012658228" y="466.2"/>
      <point x="554.4011444309" y="425.58550387536"/>
      <point x="557.4" y="386.0" type="curve" smooth="yes"/>
      <point x="570.6" y="227.4"/>
      <point x="617.0" y="158.0"/>
      <point x="617.0" y="-30.2" type="curve" smooth="yes"/>
      <point x="617.0" y="-172.8"/>
      <point x="535.77894736842" y="-260.0"/>
      <point x="393.0" y="-260.0" type="curve" smooth="yes"/>
      <point x="155.62689655172" y="-260.0"/>
      <point x="108.8" y="-169.824"/>
      <point x="108.8" y="-106.2" type="curve" smooth="yes"/>
      <point x="108.8" y="-57.4"/>
      <point x="144.4" y="-19.0"/>
      <point x="201.6" y="-19.0" type="curve" smooth="yes"/>
      <point x="226.0" y="-19.0"/>
      <point x="234.0" y="-30.0"/>
      <point x="234.0" y="-51.0" type="curve" smooth="yes"/>
      <point x="234.0" y="-84.19999999999999"/>
      <point x="272.1627118644" y="-109.19999999999999"/>
      <point x="383.0" y="-109.19999999999999" type="curve" smooth="yes"/>
      <point x="445.2" y="-109.19999999999999"/>
      <point x="465.2" y="-78.83870967742"/>
      <point x="465.2" y="-22.4" type="curve" smooth="yes"/>
      <point x="465.2" y="81.76561403508"/>
      <point x="434.8" y="132.0"/>
      <point x="422.8" y="235.2" type="curve"/>
      <point x="480.4" y="227.39999999999998" type="line"/>
      <point x="445.1301347515" y="93.4725173739"/>
      <point x="330.73908629442" y="51.0"/>
      <point x="242.0" y="51.0" type="curve" smooth="yes"/>
      <point x="111.82842639594" y="51.0"/>
      <point x="31.0" y="122.97525773196"/>
      <point x="31.0" y="247.0" type="curve" smooth="yes"/>
      <point x="31.0" y="401.2947368421"/>
      <point x="159.4" y="522.8"/>
      <point x="302.0" y="522.8" type="curve" smooth="yes"/>
      <point x="410.4" y="522.8"/>
      <point x="447.6" y="456.84695652174"/>
      <point x="447.6" y="395.4" type="curve" smooth="yes"/>
      <point x="447.6" y="361.6"/>
      <point x="429.4" y="338.2"/>
      <point x="413.2" y="338.2" type="curve" smooth="yes"/>
      <point x="377.1724137931" y="338.2"/>
      <point x="370.6" y="378.4"/>
      <point x="324.2" y="378.4" type="curve" smooth="yes"/>
      <point x="257.6" y="378.4"/>
      <point x="182.8" y="315.28219178082"/>
      <point x="182.8" y="257.2" type="curve" smooth="yes"/>
      <point x="182.8" y="222.72258064516"/>
      <point x="201.4" y="204.0"/>
      <point x="242.6" y="204.0" type="curve" smooth="yes"/>
      <point x="343.0" y="204.0"/>
      <point x="419.4" y="270.4"/>
      <point x="419.4" y="408.0" type="curve" smooth="yes"/>
      <point x="419.4" y="448.6"/>
      <point x="429.8" y="466.2"/>
    </contour>
  </outline>
</glyph>
<glyph name="h" format="2">
  <advance width="677.0"/>
  <unicode hex="0068"/>
  <outline>
    <contour>
      <point x="578.4" y="-11.6" type="curve" smooth="yes"/>
      <point x="617.6727272727201" y="-11.6"/>
      <point x="647.6" y="11.950000000000001"/>
      <point x="647.6" y="42.400000000000006" type="curve" smooth="yes"/>
      <point x="647.6" y="57.56923076924001"/>
      <point x="642.6309322299" y="71.7381355402"/>
      <point x="636.0" y="85.0" type="curve" smooth="yes"/>
      <point x="617.6670248804" y="117.63795547718"/>
      <point x="587.43984978432" y="151.92155222866"/>
      <point x="576.0" y="268.0" type="curve" smooth="yes"/>
      <point x="561.41940633124" y="429.18653035628"/>
      <point x="532.4" y="524.4"/>
      <point x="421.0" y="524.4" type="curve" smooth="yes"/>
      <point x="338.0" y="524.4"/>
      <point x="258.8" y="443.6"/>
      <point x="180.6" y="259.20000000000005" type="curve"/>
      <point x="213.0" y="200.4" type="line"/>
      <point x="212.2" y="416.6"/>
      <point x="242.0" y="535.0"/>
      <point x="242.0" y="630.6" type="curve" smooth="yes"/>
      <point x="242.0" y="769.2"/>
      <point x="187.3875" y="810.0"/>
      <point x="138.8" y="810.0" type="curve" smooth="yes"/>
      <point x="91.63999999999999" y="810.0"/>
      <point x="75.0" y="783.2"/>
      <point x="75.0" y="755.4" type="curve" smooth="yes"/>
      <point x="75.0" y="714.4"/>
      <point x="89.19999999999999" y="681.8"/>
      <point x="89.19999999999999" y="609.0" type="curve" smooth="yes"/>
      <point x="89.19999999999999" y="490.0"/>
      <point x="59.0" y="343.4"/>
      <point x="59.0" y="127.0" type="curve" smooth="yes"/>
      <point x="59.0" y="52.0"/>
      <point x="101.7076923077" y="-10.0"/>
      <point x="155.0" y="-10.0" type="curve" smooth="yes"/>
      <point x="182.4" y="-10.0"/>
      <point x="202.4" y="0.40000000000000036"/>
      <point x="219.4" y="39.2" type="curve" smooth="yes"/>
      <point x="294.8" y="223.8"/>
      <point x="371.8" y="332.2"/>
      <point x="410.4" y="342.6" type="curve"/>
      <point x="421.0" y="309.6"/>
      <point x="427.2" y="268.8"/>
      <point x="433.8" y="161.2" type="curve" smooth="yes"/>
      <point x="440.19298323122" y="68.09998895502"/>
      <point x="492.01647058824" y="-11.6"/>
    </contour>
  </outline>
</glyph>
<glyph name="i" format="2">
  <advance width="333.6"/>
  <unicode hex="0069"/>
  <outline>
    <contour>
      <point x="174.2" y="-10.2" type="curve" smooth="yes"/>
      <point x="211.0" y="-10.2"/>
      <point x="230.2" y="13.600000000000001"/>
      <point x="230.2" y="53.0" type="curve" smooth="yes"/>
      <point x="230.2" y="125.0"/>
      <point x="242.4" y="354.2"/>
      <point x="241.4" y="421.0" type="curve" smooth="yes"/>
      <point x="240.4" y="486.0"/>
      <point x="206.0" y="520.0"/>
      <point x="164.4" y="520.0" type="curve" smooth="yes"/>
      <point x="116.2" y="520.0"/>
      <point x="64.6" y="464.0"/>
      <point x="64.6" y="400.0" type="curve" smooth="yes"/>
      <point x="64.6" y="312.6"/>
      <point x="72.4" y="261.6"/>
      <point x="72.4" y="89.0" type="curve" smooth="yes"/>
      <point x="72.4" y="36.8"/>
      <point x="117.6" y="-10.2"/>
    </contour>
    <contour>
      <point x="178.0" y="608.2" type="curve" smooth="yes"/>
      <point x="232.2" y="608.2"/>
      <point x="252.8" y="643.2"/>
      <point x="252.8" y="677.0" type="curve" smooth="yes"/>
      <point x="252.8" y="739.0"/>
      <point x="206.4" y="815.4"/>
      <point x="128.2" y="815.4" type="curve" smooth="yes"/>
      <point x="85.2" y="815.4"/>
      <point x="49.8" y="779.4"/>
      <point x="49.8" y="730.4" type="curve" smooth="yes"/>
      <point x="49.8" y="667.2"/>
      <point x="108.2" y="608.2"/>
    </contour>
  </outline>
</glyph>
<glyph name="j" format="2">
  <advance width="324.2"/>
  <unicode hex="006A"/>
  <outline>
    <contour>
      <point x="198.0" y="461.2" type="curve" smooth="yes"/>
      <point x="234.4" y="276.8"/>
      <point x="256.2" y="116.2"/>
      <point x="256.2" y="-40.0" type="curve" smooth="yes"/>
      <point x="256.2" y="-185.0"/>
      <point x="174.8" y="-260.0"/>
      <point x="51.2" y="-260.0" type="curve" smooth="yes"/>
      <point x="-44.4" y="-260.0"/>
      <point x="-99.0" y="-206.8"/>
      <point x="-99.0" y="-142.2" type="curve" smooth="yes"/>
      <point x="-99.0" y="-107.0"/>
      <point x="-80.6" y="-87.19999999999999"/>
      <point x="-53.8" y="-87.19999999999999" type="curve" smooth="yes"/>
      <point x="-18.799999999999997" y="-87.19999999999999"/>
      <point x="-0.5999999999999943" y="-109.19999999999999"/>
      <point x="42.2" y="-109.19999999999999" type="curve" smooth="yes"/>
      <point x="83.6" y="-109.19999999999999"/>
      <point x="106.8" y="-79.8"/>
      <point x="106.8" y="-31.2" type="curve" smooth="yes"/>
      <point x="106.8" y="206.39999999999998"/>
      <point x="49.2" y="288.2"/>
      <point x="49.2" y="412.4" type="curve" smooth="yes"/>
      <point x="49.2" y="488.8"/>
      <point x="88.8" y="518.4"/>
      <point x="129.4" y="518.4" type="curve" smooth="yes"/>
      <point x="165.0" y="518.4"/>
      <point x="188.0" y="507.4"/>
    </contour>
    <contour>
      <point x="152.4" y="614.6" type="curve" smooth="yes"/>
      <point x="206.6" y="614.6"/>
      <point x="227.2" y="660.0"/>
      <point x="227.2" y="701.0" type="curve" smooth="yes"/>
      <point x="227.2" y="751.0"/>
      <point x="193.6" y="813.8"/>
      <point x="134.6" y="813.8" type="curve" smooth="yes"/>
      <point x="82.0" y="813.8"/>
      <point x="40.2" y="771.4"/>
      <point x="40.2" y="712.8" type="curve" smooth="yes"/>
      <point x="40.2" y="662.4"/>
      <point x="90.6" y="614.6"/>
    </contour>
  </outline>
</glyph>
<glyph name="k" format="2">
  <advance width="654.0"/>
  <unicode hex="006B"/>
  <outline>
    <contour>
      <point x="538.2" y="-7.0" type="curve" smooth="yes"/>
      <point x="579.8" y="-7.0"/>
      <point x="601.8" y="17.4"/>
      <point x="601.8" y="55.800000000000004" type="curve" smooth="yes"/>
      <point x="601.8" y="98.4"/>
      <point x="579.0" y="142.8"/>
      <point x="514.0" y="157.60000000000002" type="curve" smooth="yes"/>
      <point x="385.04165727726" y="190.92245326178"/>
      <point x="338.2" y="225.4"/>
      <point x="338.2" y="245.0" type="curve" smooth="yes"/>
      <point x="338.2" y="271.11343283582"/>
      <point x="415.64931686372" y="334.3032524385"/>
      <point x="524.8" y="368.8" type="curve" smooth="yes"/>
      <point x="583.8" y="387.0"/>
      <point x="600.2" y="406.2"/>
      <point x="600.2" y="439.2" type="curve" smooth="yes"/>
      <point x="600.2" y="491.6"/>
      <point x="567.34444444444" y="520.6"/>
      <point x="516.6" y="520.6" type="curve" smooth="yes"/>
      <point x="412.4" y="520.6"/>
      <point x="172.0" y="366.8"/>
      <point x="172.0" y="229.0" type="curve" smooth="yes"/>
      <point x="172.0" y="134.0"/>
      <point x="405.8" y="-7.0"/>
    </contour>
    <contour>
      <point x="133.6" y="810.0" type="curve" smooth="yes"/>
      <point x="93.8" y="810.0"/>
      <point x="75.2" y="788.6"/>
      <point x="75.2" y="749.0" type="curve" smooth="yes"/>
      <point x="75.2" y="711.1"/>
      <point x="86.4" y="685.0"/>
      <point x="86.4" y="593.4" type="curve" smooth="yes"/>
      <point x="86.4" y="404.8"/>
      <point x="59.0" y="220.1713114754"/>
      <point x="59.0" y="133.0" type="curve" smooth="yes"/>
      <point x="59.0" y="18.2"/>
      <point x="107.9" y="-10.0"/>
      <point x="156.0" y="-10.0" type="curve" smooth="yes"/>
      <point x="192.82222222222" y="-10.0"/>
      <point x="213.0" y="7.4"/>
      <point x="213.0" y="47.400000000000006" type="curve" smooth="yes"/>
      <point x="213.0" y="93.2"/>
      <point x="208.0" y="133.32"/>
      <point x="208.0" y="193.0" type="curve" smooth="yes"/>
      <point x="208.0" y="313.7981264637"/>
      <point x="243.0" y="425.4"/>
      <point x="243.0" y="596.0" type="curve" smooth="yes"/>
      <point x="243.0" y="755.0"/>
      <point x="205.2" y="810.0"/>
    </contour>
  </outline>
</glyph>
<glyph name="l" format="2">
  <advance width="387.8"/>
  <unicode hex="006C"/>
  <outline>
    <contour>
      <point x="232.2" y="690.2" type="curve" smooth="yes"/>
      <point x="232.2" y="609.2"/>
      <point x="209.0" y="515.6"/>
      <point x="209.0" y="347.0" type="curve" smooth="yes"/>
      <point x="209.0" y="161.2"/>
      <point x="230.60000000000002" y="142.4"/>
      <point x="257.0" y="142.4" type="curve" smooth="yes"/>
      <point x="291.6" y="142.4"/>
      <point x="309.9875" y="165.60000000000002"/>
      <point x="332.4" y="165.60000000000002" type="curve" smooth="yes"/>
      <point x="363.65" y="165.60000000000002"/>
      <point x="373.8" y="139.17454545454"/>
      <point x="373.8" y="103.0" type="curve" smooth="yes"/>
      <point x="373.8" y="32.4875"/>
      <point x="311.6" y="-11.0"/>
      <point x="223.8" y="-11.0" type="curve" smooth="yes"/>
      <point x="157.2" y="-11.0"/>
      <point x="53.8" y="28.4"/>
      <point x="53.8" y="367.0" type="curve" smooth="yes"/>
      <point x="53.8" y="518.6"/>
      <point x="64.58640169392" y="632.29898401202"/>
      <point x="84.2" y="745.2" type="curve" smooth="yes"/>
      <point x="92.2" y="791.4"/>
      <point x="112.6" y="810.0"/>
      <point x="150.0" y="810.0" type="curve" smooth="yes"/>
      <point x="202.2" y="810.0"/>
      <point x="232.2" y="774.8"/>
    </contour>
  </outline>
</glyph>
<glyph name="m" format="2">
  <advance width="955.0"/>
  <unicode hex="006D"/>
  <outline>
    <contour>
      <point x="207.6" y="385.6" type="curve" smooth="yes"/>
      <point x="207.6" y="271.0"/>
      <point x="149.2" y="294.6"/>
      <point x="176.4" y="379.6" type="curve" smooth="yes"/>
      <point x="202.2" y="461.4"/>
      <point x="258.8" y="519.6"/>
      <point x="338.2" y="519.6" type="curve" smooth="yes"/>
      <point x="409.0" y="519.6"/>
      <point x="441.6" y="458.6"/>
      <point x="456.6" y="359.20000000000005" type="curve" smooth="yes"/>
      <point x="465.4" y="297.4"/>
      <point x="478.0" y="256.20000000000005"/>
      <point x="491.4" y="231.4" type="curve" smooth="yes"/>
      <point x="526.8" y="165.6"/>
      <point x="428.0" y="142.0"/>
      <point x="450.8" y="238.60000000000002" type="curve" smooth="yes"/>
      <point x="491.4" y="417.8"/>
      <point x="583.23571428572" y="519.6"/>
      <point x="674.0" y="519.6" type="curve" smooth="yes"/>
      <point x="789.6" y="519.6"/>
      <point x="838.4" y="435.6"/>
      <point x="853.4" y="266.8" type="curve" smooth="yes"/>
      <point x="868.8" y="94.8"/>
      <point x="907.8" y="95.2"/>
      <point x="907.8" y="45.2" type="curve" smooth="yes"/>
      <point x="907.8" y="19.400000000000002"/>
      <point x="887.0" y="-9.0"/>
      <point x="852.0" y="-9.0" type="curve" smooth="yes"/>
      <point x="773.0" y="-9.0"/>
      <point x="726.4" y="32.2"/>
      <point x="709.4" y="167.2" type="curve" smooth="yes"/>
      <point x="691.4" y="312.0"/>
      <point x="682.2" y="338.8"/>
      <point x="658.6" y="380.8" type="curve" smooth="yes"/>
      <point x="635.2" y="424.2"/>
      <point x="734.0" y="414.0"/>
      <point x="683.0" y="368.6" type="curve" smooth="yes"/>
      <point x="610.6" y="304.2"/>
      <point x="578.2" y="189.8"/>
      <point x="539.6" y="46.2" type="curve" smooth="yes"/>
      <point x="531.0" y="9.8"/>
      <point x="504.2" y="-9.0"/>
      <point x="469.4" y="-9.0" type="curve" smooth="yes"/>
      <point x="391.2" y="-9.0"/>
      <point x="359.2" y="60.6"/>
      <point x="346.0" y="168.4" type="curve" smooth="yes"/>
      <point x="331.0" y="287.8"/>
      <point x="320.0" y="342.4"/>
      <point x="286.0" y="383.0" type="curve" smooth="yes"/>
      <point x="265.4" y="408.4"/>
      <point x="335.4" y="396.2"/>
      <point x="314.6" y="362.4" type="curve" smooth="yes"/>
      <point x="257.8" y="273.0"/>
      <point x="238.2" y="157.6"/>
      <point x="226.0" y="40.4" type="curve" smooth="yes"/>
      <point x="222.2" y="7.0"/>
      <point x="201.75384615384002" y="-9.0"/>
      <point x="162.0" y="-9.0" type="curve" smooth="yes"/>
      <point x="81.75384615384" y="-9.0"/>
      <point x="58.4" y="81.2"/>
      <point x="58.4" y="172.4" type="curve" smooth="yes"/>
      <point x="58.4" y="236.79206349205998"/>
      <point x="68.2" y="307.2"/>
      <point x="68.2" y="370.6" type="curve" smooth="yes"/>
      <point x="68.2" y="400.62926829268"/>
      <point x="62.2" y="426.93170731708"/>
      <point x="62.2" y="452.6" type="curve" smooth="yes"/>
      <point x="62.2" y="473.6"/>
      <point x="77.4" y="492.6"/>
      <point x="106.2" y="492.6" type="curve" smooth="yes"/>
      <point x="178.3024390244" y="492.6"/>
      <point x="207.6" y="430.432"/>
    </contour>
  </outline>
</glyph>
<glyph name="n" format="2">
  <advance width="688.0"/>
  <unicode hex="006E"/>
  <outline>
    <contour>
      <point x="570.8" y="-10.0" type="curve" smooth="yes"/>
      <point x="607.0" y="-10.0"/>
      <point x="643.4" y="24.8"/>
      <point x="643.4" y="71.0" type="curve" smooth="yes"/>
      <point x="643.4" y="94.2"/>
      <point x="637.0" y="109.2"/>
      <point x="620.6" y="122.8" type="curve" smooth="yes"/>
      <point x="578.8" y="157.60000000000002"/>
      <point x="574.0" y="227.72213740458"/>
      <point x="574.0" y="364.4" type="curve" smooth="yes"/>
      <point x="574.0" y="451.2"/>
      <point x="517.6" y="518.4"/>
      <point x="431.0" y="518.4" type="curve" smooth="yes"/>
      <point x="333.2" y="518.4"/>
      <point x="226.8" y="422.4"/>
      <point x="159.8" y="216.20000000000002" type="curve"/>
      <point x="202.2" y="165.0" type="line"/>
      <point x="200.20122049138" y="311.97815320426"/>
      <point x="229.4" y="340.6"/>
      <point x="229.4" y="415.4" type="curve" smooth="yes"/>
      <point x="229.4" y="477.2"/>
      <point x="175.22857142858" y="507.8"/>
      <point x="139.0" y="507.8" type="curve" smooth="yes"/>
      <point x="105.92857142858" y="507.8"/>
      <point x="88.0" y="488.45"/>
      <point x="88.0" y="461.8" type="curve" smooth="yes"/>
      <point x="88.0" y="338.40394736842"/>
      <point x="59.0" y="286.37435897436"/>
      <point x="59.0" y="151.0" type="curve" smooth="yes"/>
      <point x="59.0" y="58.0"/>
      <point x="87.75999999999999" y="-9.0"/>
      <point x="145.0" y="-9.0" type="curve" smooth="yes"/>
      <point x="186.85555555556" y="-9.0"/>
      <point x="209.6309339908" y="7.13563365196"/>
      <point x="222.6" y="53.6" type="curve" smooth="yes"/>
      <point x="274.4" y="234.2"/>
      <point x="368.2" y="371.4"/>
      <point x="418.6" y="371.4" type="curve" smooth="yes"/>
      <point x="437.6" y="371.4"/>
      <point x="450.2" y="360.4"/>
      <point x="475.0" y="332.8" type="curve"/>
      <point x="478.6" y="387.6"/>
      <point x="449.2" y="393.2"/>
      <point x="398.0" y="394.8" type="curve"/>
      <point x="432.4" y="376.6"/>
      <point x="435.6" y="355.8"/>
      <point x="435.6" y="292.2" type="curve" smooth="yes"/>
      <point x="435.6" y="88.8"/>
      <point x="484.4" y="-10.0"/>
    </contour>
  </outline>
</glyph>
<glyph name="o" format="2">
  <advance width="648.0"/>
  <unicode hex="006F"/>
  <outline>
    <contour>
      <point x="339.0" y="-12.0" type="curve" smooth="yes"/>
      <point x="491.2" y="-12.0"/>
      <point x="607.0" y="106.2"/>
      <point x="607.0" y="262.0" type="curve" smooth="yes"/>
      <point x="607.0" y="415.6"/>
      <point x="507.4" y="511.6"/>
      <point x="337.0" y="511.6" type="curve" smooth="yes"/>
      <point x="251.54891304348" y="511.6"/>
      <point x="159.2" y="425.8"/>
      <point x="159.2" y="348.6" type="curve" smooth="yes"/>
      <point x="159.2" y="296.6"/>
      <point x="180.8" y="282.0"/>
      <point x="204.4" y="282.0" type="curve" smooth="yes"/>
      <point x="235.2" y="282.0"/>
      <point x="248.4" y="294.8"/>
      <point x="277.2" y="323.6" type="curve" smooth="yes"/>
      <point x="302.24736005172" y="348.64736005172"/>
      <point x="318.41818181818" y="363.4"/>
      <point x="348.2" y="363.4" type="curve" smooth="yes"/>
      <point x="413.4" y="363.4"/>
      <point x="457.4" y="322.0"/>
      <point x="457.4" y="256.8" type="curve" smooth="yes"/>
      <point x="457.4" y="183.2"/>
      <point x="407.0" y="134.0"/>
      <point x="334.4" y="134.0" type="curve" smooth="yes"/>
      <point x="246.8" y="134.0"/>
      <point x="191.2" y="183.2"/>
      <point x="191.2" y="257.8" type="curve" smooth="yes"/>
      <point x="191.2" y="304.42958579882"/>
      <point x="234.393106909" y="344.80420015804"/>
      <point x="275.4" y="360.8" type="curve" smooth="yes"/>
      <point x="334.4" y="380.6"/>
      <point x="349.6" y="417.2"/>
      <point x="349.6" y="464.4" type="curve" smooth="yes"/>
      <point x="349.6" y="503.68695652174"/>
      <point x="317.2" y="519.0"/>
      <point x="283.0" y="519.0" type="curve" smooth="yes"/>
      <point x="172.8" y="519.0"/>
      <point x="41.0" y="393.8"/>
      <point x="41.0" y="262.0" type="curve" smooth="yes"/>
      <point x="41.0" y="102.4"/>
      <point x="165.8" y="-12.0"/>
    </contour>
  </outline>
</glyph>
<glyph name="p" format="2">
  <advance width="598.0"/>
  <unicode hex="0070"/>
  <outline>
    <contour>
      <point x="195.0" y="363.2" type="curve" smooth="yes"/>
      <point x="195.0" y="210.2"/>
      <point x="243.0" y="93.8"/>
      <point x="243.0" y="-46.0" type="curve" smooth="yes"/>
      <point x="243.0" y="-152.4"/>
      <point x="231.4" y="-261.0"/>
      <point x="148.2" y="-261.0" type="curve" smooth="yes"/>
      <point x="109.8" y="-261.0"/>
      <point x="67.2" y="-231.6"/>
      <point x="67.2" y="-167.39999999999998" type="curve" smooth="yes"/>
      <point x="67.2" y="-110.39999999999999"/>
      <point x="83.8" y="-87.39999999999999"/>
      <point x="83.8" y="-8.399999999999999" type="curve" smooth="yes"/>
      <point x="83.8" y="141.0"/>
      <point x="41.0" y="262.6"/>
      <point x="32.2" y="406.0" type="curve" smooth="yes"/>
      <point x="30.599999999999998" y="436.2"/>
      <point x="51.2" y="456.0"/>
      <point x="82.8" y="456.0" type="curve" smooth="yes"/>
      <point x="139.54358974358001" y="456.0"/>
      <point x="195.0" y="413.4"/>
    </contour>
    <contour>
      <point x="224.2" y="521.2" type="curve" smooth="yes"/>
      <point x="410.0" y="521.2"/>
      <point x="565.6" y="404.0"/>
      <point x="565.6" y="198.2" type="curve" smooth="yes"/>
      <point x="565.6" y="94.80000000000001"/>
      <point x="476.8" y="-10.0"/>
      <point x="332.4" y="-10.0" type="curve" smooth="yes"/>
      <point x="216.0" y="-10.0"/>
      <point x="128.0" y="61.0"/>
      <point x="128.0" y="142.2" type="curve" smooth="yes"/>
      <point x="128.0" y="165.0"/>
      <point x="148.0" y="188.0"/>
      <point x="170.4" y="188.0" type="curve" smooth="yes"/>
      <point x="211.2" y="188.0"/>
      <point x="236.6" y="138.4"/>
      <point x="308.2" y="138.4" type="curve" smooth="yes"/>
      <point x="366.6" y="138.4"/>
      <point x="406.4" y="161.2"/>
      <point x="406.4" y="221.0" type="curve" smooth="yes"/>
      <point x="406.4" y="315.0"/>
      <point x="303.8" y="368.2"/>
      <point x="220.0" y="368.2" type="curve" smooth="yes"/>
      <point x="202.6" y="368.2"/>
      <point x="188.8" y="362.0"/>
      <point x="163.2" y="362.0" type="curve" smooth="yes"/>
      <point x="123.4" y="362.0"/>
      <point x="82.4" y="396.8"/>
      <point x="82.4" y="439.0" type="curve" smooth="yes"/>
      <point x="82.4" y="501.8"/>
      <point x="129.4" y="521.2"/>
    </contour>
  </outline>
</glyph>
<glyph name="q" format="2">
  <advance width="606.0"/>
  <unicode hex="0071"/>
  <outline>
    <contour>
      <point x="424.2" y="313.4" type="curve" smooth="yes"/>
      <point x="461.6" y="313.4"/>
      <point x="491.4" y="342.51875"/>
      <point x="491.4" y="375.2" type="curve" smooth="yes"/>
      <point x="491.4" y="448.0125"/>
      <point x="428.8" y="519.0"/>
      <point x="333.0" y="519.0" type="curve" smooth="yes"/>
      <point x="179.0" y="519.0"/>
      <point x="21.0" y="353.12833876222"/>
      <point x="21.0" y="200.0" type="curve" smooth="yes"/>
      <point x="21.0" y="73.80404040404"/>
      <point x="90.0" y="-10.0"/>
      <point x="229.0" y="-10.0" type="curve" smooth="yes"/>
      <point x="313.8" y="-10.0"/>
      <point x="375.8" y="20.4"/>
      <point x="436.0" y="76.6" type="curve" smooth="yes"/>
      <point x="500.8" y="131.6"/>
      <point x="409.14809763006" y="140.36507534712"/>
      <point x="407.2" y="91.8" type="curve" smooth="yes"/>
      <point x="402.72468450934" y="-13.296281156840001"/>
      <point x="407.4" y="-81.4"/>
      <point x="412.2" y="-177.2" type="curve" smooth="yes"/>
      <point x="414.6" y="-211.2"/>
      <point x="447.0" y="-260.0"/>
      <point x="494.2" y="-260.0" type="curve" smooth="yes"/>
      <point x="536.6" y="-260.0"/>
      <point x="580.25769003588" y="-232.8245212186"/>
      <point x="622.0" y="-196.0" type="curve" smooth="yes"/>
      <point x="634.0" y="-185.0"/>
      <point x="642.0" y="-169.0"/>
      <point x="642.0" y="-151.0" type="curve" smooth="yes"/>
      <point x="642.0" y="-91.76842105264001"/>
      <point x="622.6" y="-42.599999999999994"/>
      <point x="597.4" y="-42.599999999999994" type="curve" smooth="yes"/>
      <point x="577.4" y="-42.599999999999994"/>
      <point x="562.85675451494" y="-60.1675688486"/>
      <point x="539.0" y="-73.8" type="curve" smooth="yes"/>
      <point x="512.18198241116" y="-89.07408984976"/>
      <point x="561.4" y="-127.19999999999999"/>
      <point x="559.0" y="-83.8" type="curve" smooth="yes"/>
      <point x="554.2" y="30.648635235740006"/>
      <point x="552.00595238816" y="85.74851160014"/>
      <point x="552.0" y="165.4" type="curve"/>
      <point x="558.5388824798999" y="188.04015417822"/>
      <point x="580.0" y="232.75319148936"/>
      <point x="580.0" y="292.0" type="curve" smooth="yes"/>
      <point x="580.0" y="335.28888888888"/>
      <point x="545.05882352942" y="368.0"/>
      <point x="488.0" y="368.0" type="curve" smooth="yes"/>
      <point x="466.0" y="368.0"/>
      <point x="454.0" y="356.0"/>
      <point x="448.4" y="336.6" type="curve" smooth="yes"/>
      <point x="412.0" y="217.8"/>
      <point x="330.0" y="139.0"/>
      <point x="229.0" y="139.0" type="curve" smooth="yes"/>
      <point x="195.44285714286" y="139.0"/>
      <point x="176.0" y="157.4129032258"/>
      <point x="176.0" y="191.0" type="curve" smooth="yes"/>
      <point x="176.0" y="264.92"/>
      <point x="270.70306122448" y="369.0"/>
      <point x="333.0" y="369.0" type="curve" smooth="yes"/>
      <point x="359.6" y="369.0"/>
      <point x="371.8" y="360.8"/>
      <point x="384.6" y="340.4" type="curve" smooth="yes"/>
      <point x="396.00426545078" y="320.6680686425"/>
      <point x="409.4" y="313.4"/>
    </contour>
  </outline>
</glyph>
<glyph name="r" format="2">
  <advance width="516.0"/>
  <unicode hex="0072"/>
  <outline>
    <contour>
      <point x="177.0" y="-12.0" type="curve" smooth="yes"/>
      <point x="219.48214285714" y="-12.0"/>
      <point x="229.6" y="10.4"/>
      <point x="243.2" y="89.6" type="curve" smooth="yes"/>
      <point x="262.6" y="214.6"/>
      <point x="300.75932548072" y="289.18549590786"/>
      <point x="458.6" y="352.0" type="curve" smooth="yes"/>
      <point x="499.63491435572" y="368.6822200245"/>
      <point x="507.8" y="394.91219512196"/>
      <point x="507.8" y="421.8" type="curve" smooth="yes"/>
      <point x="507.8" y="478.41538461538"/>
      <point x="492.6" y="516.2"/>
      <point x="447.4" y="516.2" type="curve" smooth="yes"/>
      <point x="345.0" y="516.2"/>
      <point x="219.2" y="411.4"/>
      <point x="168.2" y="237.60000000000002" type="curve"/>
      <point x="229.8" y="259.20000000000005" type="line"/>
      <point x="210.6" y="450.8"/>
      <point x="164.8" y="506.6"/>
      <point x="78.0" y="506.6" type="curve" smooth="yes"/>
      <point x="49.29285714286" y="506.6"/>
      <point x="26.599999999999998" y="490.8"/>
      <point x="26.599999999999998" y="466.8" type="curve" smooth="yes"/>
      <point x="26.599999999999998" y="447.0"/>
      <point x="30.53086957534" y="434.65360245988"/>
      <point x="46.4" y="400.0" type="curve" smooth="yes"/>
      <point x="76.71146138323999" y="332.73157576956"/>
      <point x="87.8" y="238.2"/>
      <point x="87.8" y="101.4" type="curve" smooth="yes"/>
      <point x="87.8" y="39.0"/>
      <point x="131.49142857142" y="-12.0"/>
    </contour>
  </outline>
</glyph>
<glyph name="s" format="2">
  <advance width="477.0"/>
  <unicode hex="0073"/>
  <outline>
    <contour>
      <point x="171.0" y="-10.0" type="curve" smooth="yes"/>
      <point x="315.0" y="-10.0"/>
      <point x="452.0" y="41.0"/>
      <point x="452.0" y="156.0" type="curve" smooth="yes"/>
      <point x="452.0" y="296.0"/>
      <point x="192.0" y="304.0"/>
      <point x="165.0" y="355.0" type="curve"/>
      <point x="201.2442247937" y="388.9789607441"/>
      <point x="274.0" y="391.0"/>
      <point x="359.0" y="391.0" type="curve" smooth="yes"/>
      <point x="383.0" y="391.0"/>
      <point x="402.0" y="405.0"/>
      <point x="402.0" y="430.0" type="curve" smooth="yes"/>
      <point x="402.0" y="468.6590909091"/>
      <point x="367.9987643701" y="510.000022466"/>
      <point x="313.0" y="511.0" type="curve" smooth="yes"/>
      <point x="189.0" y="514.0"/>
      <point x="42.0" y="451.0"/>
      <point x="42.0" y="344.0" type="curve" smooth="yes"/>
      <point x="42.0" y="209.2388888889"/>
      <point x="312.5793907608" y="199.9213345239"/>
      <point x="334.0" y="153.0" type="curve"/>
      <point x="315.4833527132" y="128.0025261629"/>
      <point x="240.0983606557" y="110.0"/>
      <point x="155.0" y="110.0" type="curve" smooth="yes"/>
      <point x="116.0" y="110.0"/>
      <point x="88.0" y="119.0"/>
      <point x="60.0" y="119.0" type="curve" smooth="yes"/>
      <point x="35.0" y="119.0"/>
      <point x="22.0" y="101.0"/>
      <point x="22.0" y="80.0" type="curve" smooth="yes"/>
      <point x="22.0" y="37.7"/>
      <point x="75.0" y="-10.0"/>
    </contour>
  </outline>
</glyph>
<glyph name="t" format="2">
  <advance width="491.0"/>
  <unicode hex="0074"/>
  <outline>
    <contour>
      <point x="208.8" y="335.6" type="curve" smooth="yes"/>
      <point x="208.8" y="432.0"/>
      <point x="221.8" y="488.8"/>
      <point x="221.8" y="558.0" type="curve" smooth="yes"/>
      <point x="221.8" y="666.8"/>
      <point x="173.28214285714" y="714.0"/>
      <point x="100.4" y="714.0" type="curve" smooth="yes"/>
      <point x="59.87692307692" y="714.0"/>
      <point x="50.8" y="693.97"/>
      <point x="50.8" y="668.6" type="curve" smooth="yes"/>
      <point x="50.8" y="636.17894736842"/>
      <point x="67.6" y="610.8"/>
      <point x="67.6" y="553.0" type="curve" smooth="yes"/>
      <point x="67.6" y="475.0"/>
      <point x="57.0" y="420.8398340249"/>
      <point x="57.0" y="330.0" type="curve" smooth="yes"/>
      <point x="57.0" y="124.2"/>
      <point x="123.2" y="-13.0"/>
      <point x="313.8" y="-13.0" type="curve" smooth="yes"/>
      <point x="404.2" y="-13.0"/>
      <point x="452.2" y="39.6"/>
      <point x="452.2" y="113.0" type="curve" smooth="yes"/>
      <point x="452.2" y="147.8"/>
      <point x="441.37777777778" y="164.8"/>
      <point x="417.0" y="164.8" type="curve" smooth="yes"/>
      <point x="391.62253521126" y="164.8"/>
      <point x="378.25633802816" y="144.2"/>
      <point x="340.4" y="144.2" type="curve" smooth="yes"/>
      <point x="252.58518518518" y="144.2"/>
      <point x="208.8" y="194.4"/>
    </contour>
    <contour>
      <point x="191.2" y="339.0" type="curve" smooth="yes"/>
      <point x="263.9841895254" y="368.27594376094"/>
      <point x="321.5747890961" y="379.414565758"/>
      <point x="420.6" y="385.6" type="curve" smooth="yes"/>
      <point x="446.39795047202" y="387.59983603776"/>
      <point x="460.4" y="406.66666666666"/>
      <point x="460.4" y="429.6" type="curve" smooth="yes"/>
      <point x="460.4" y="477.41818181818"/>
      <point x="412.2465116279" y="519.0"/>
      <point x="351.0" y="519.0" type="curve" smooth="yes"/>
      <point x="295.91933701658" y="519.0"/>
      <point x="225.25504421398" y="505.9018682274"/>
      <point x="171.0" y="486.4" type="curve" smooth="yes"/>
      <point x="111.0" y="464.2"/>
      <point x="104.6" y="432.2"/>
      <point x="104.6" y="393.8" type="curve" smooth="yes"/>
      <point x="104.6" y="347.6"/>
      <point x="136.6" y="316.4"/>
    </contour>
    <component base="t.001"/>
  </outline>
</glyph>
<glyph name="u" format="2">
  <advance width="627.0"/>
  <unicode hex="0075"/>
  <outline>
    <contour>
      <point x="327.0" y="-10.0" type="curve" smooth="yes"/>
      <point x="461.24864864864" y="-10.0"/>
      <point x="567.0" y="118.35129533678"/>
      <point x="567.0" y="383.8" type="curve" smooth="yes"/>
      <point x="567.0" y="476.6"/>
      <point x="532.69361702128" y="517.8"/>
      <point x="474.4" y="517.8" type="curve" smooth="yes"/>
      <point x="427.6" y="517.8"/>
      <point x="414.6" y="492.45882352942"/>
      <point x="414.6" y="449.8" type="curve" smooth="yes"/>
      <point x="414.6" y="417.20792079208"/>
      <point x="419.2" y="394.0"/>
      <point x="419.2" y="350.8" type="curve" smooth="yes"/>
      <point x="419.2" y="237.4"/>
      <point x="382.6" y="143.0"/>
      <point x="315.0" y="143.0" type="curve" smooth="yes"/>
      <point x="260.0" y="143.0"/>
      <point x="192.8" y="235.8"/>
      <point x="192.8" y="317.8" type="curve" smooth="yes"/>
      <point x="192.8" y="365.6"/>
      <point x="215.2" y="396.4"/>
      <point x="215.2" y="425.0" type="curve" smooth="yes"/>
      <point x="215.2" y="476.4"/>
      <point x="170.8" y="520.8"/>
      <point x="122.2" y="520.8" type="curve" smooth="yes"/>
      <point x="98.6" y="520.8"/>
      <point x="80.2" y="505.4"/>
      <point x="73.0" y="485.4" type="curve" smooth="yes"/>
      <point x="51.0" y="430.0"/>
      <point x="41.0" y="378.28705882352"/>
      <point x="41.0" y="317.8" type="curve" smooth="yes"/>
      <point x="41.0" y="180.88875"/>
      <point x="153.24925373134" y="-10.0"/>
    </contour>
  </outline>
</glyph>
<glyph name="v" format="2">
  <advance width="617.0"/>
  <unicode hex="0076"/>
  <outline>
    <contour>
      <point x="203.0" y="59.0" type="curve" smooth="yes"/>
      <point x="234.4486822344" y="10.6269766484"/>
      <point x="263.97674418604" y="-10.0"/>
      <point x="308.2" y="-10.0" type="curve" smooth="yes"/>
      <point x="336.71428571428" y="-10.0"/>
      <point x="350.62312683178" y="2.25466342058"/>
      <point x="364.8" y="36.2" type="curve" smooth="yes"/>
      <point x="430.63345810088003" y="190.48410183638"/>
      <point x="490.6" y="254.8"/>
      <point x="575.4" y="381.4" type="curve" smooth="yes"/>
      <point x="582.44733753476" y="392.00917191845997"/>
      <point x="587.4" y="406.85405405406"/>
      <point x="587.4" y="422.0" type="curve" smooth="yes"/>
      <point x="587.4" y="468.95384615384"/>
      <point x="546.02857142858" y="519.6"/>
      <point x="513.0" y="519.6" type="curve" smooth="yes"/>
      <point x="487.97073170732" y="519.6"/>
      <point x="475.35212231208" y="514.89900566468"/>
      <point x="457.6" y="492.6" type="curve" smooth="yes"/>
      <point x="380.70864778354" y="395.43235608316"/>
      <point x="322.6" y="303.6"/>
      <point x="266.4" y="172.8" type="curve"/>
      <point x="311.6" y="165.4" type="line"/>
      <point x="280.4" y="233.8"/>
      <point x="251.78228557074" y="315.70139535062003"/>
      <point x="226.4" y="386.8" type="curve" smooth="yes"/>
      <point x="200.8838210895" y="456.17647709466"/>
      <point x="156.2" y="517.6"/>
      <point x="74.8" y="517.6" type="curve" smooth="yes"/>
      <point x="43.0" y="517.6"/>
      <point x="26.6" y="498.0"/>
      <point x="26.6" y="473.6" type="curve" smooth="yes"/>
      <point x="26.6" y="416.4"/>
      <point x="64.0" y="387.6"/>
      <point x="113.4" y="258.8" type="curve" smooth="yes"/>
      <point x="137.8" y="195.8"/>
      <point x="175.12860729654" y="101.53147143642"/>
    </contour>
  </outline>
</glyph>
<glyph name="w" format="2">
  <advance width="905.0"/>
  <unicode hex="0077"/>
  <outline>
    <contour>
      <point x="163.8" y="461.6" type="curve" smooth="yes"/>
      <point x="211.8" y="364.4"/>
      <point x="209.0" y="216.4"/>
      <point x="271.8" y="141.0" type="curve" smooth="yes"/>
      <point x="293.4" y="115.4"/>
      <point x="200.4" y="116.4"/>
      <point x="216.6" y="139.60000000000002" type="curve" smooth="yes"/>
      <point x="258.0" y="204.60000000000002"/>
      <point x="266.0" y="265.4"/>
      <point x="305.8" y="369.8" type="curve" smooth="yes"/>
      <point x="341.8" y="465.0"/>
      <point x="373.6" y="519.2"/>
      <point x="436.0" y="519.2" type="curve" smooth="yes"/>
      <point x="505.2" y="519.2"/>
      <point x="543.8" y="465.6"/>
      <point x="581.0" y="370.2" type="curve" smooth="yes"/>
      <point x="624.2" y="257.6"/>
      <point x="625.0" y="182.8"/>
      <point x="683.0" y="149.60000000000002" type="curve" smooth="yes"/>
      <point x="736.6" y="120.80000000000001"/>
      <point x="608.6" y="102.0"/>
      <point x="635.8" y="139.2" type="curve" smooth="yes"/>
      <point x="682.4" y="202.6"/>
      <point x="686.0" y="351.8"/>
      <point x="717.8" y="433.0" type="curve" smooth="yes"/>
      <point x="734.0" y="474.0"/>
      <point x="768.22268041238" y="521.2"/>
      <point x="820.0" y="521.2" type="curve" smooth="yes"/>
      <point x="861.13220338984" y="521.2"/>
      <point x="898.8" y="481.4"/>
      <point x="898.8" y="440.0" type="curve" smooth="yes"/>
      <point x="898.8" y="419.0"/>
      <point x="887.8" y="399.0"/>
      <point x="872.6" y="381.8" type="curve" smooth="yes"/>
      <point x="827.60285727102" y="328.6909635714"/>
      <point x="820.3963621141" y="240.45369657464"/>
      <point x="800.0" y="157.8" type="curve" smooth="yes"/>
      <point x="766.6" y="18.6"/>
      <point x="720.0" y="-13.0"/>
      <point x="676.0" y="-13.0" type="curve" smooth="yes"/>
      <point x="629.27959183674" y="-13.0"/>
      <point x="593.8" y="9.600000000000001"/>
      <point x="551.8" y="78.8" type="curve" smooth="yes"/>
      <point x="487.8" y="184.4"/>
      <point x="472.2" y="320.0"/>
      <point x="432.2" y="366.0" type="curve" smooth="yes"/>
      <point x="407.4" y="392.6"/>
      <point x="479.8" y="396.6"/>
      <point x="455.6" y="366.4" type="curve" smooth="yes"/>
      <point x="407.8" y="301.8"/>
      <point x="397.2" y="185.4"/>
      <point x="345.0" y="69.2" type="curve" smooth="yes"/>
      <point x="320.4" y="12.8"/>
      <point x="286.6" y="-15.0"/>
      <point x="247.0" y="-15.0" type="curve" smooth="yes"/>
      <point x="176.6" y="-15.0"/>
      <point x="131.8" y="38.2"/>
      <point x="97.4" y="165.0" type="curve" smooth="yes"/>
      <point x="67.0" y="278.0"/>
      <point x="50.0" y="356.2"/>
      <point x="20.0" y="411.0" type="curve" smooth="yes"/>
      <point x="-18.800000000000004" y="478.8"/>
      <point x="20.0" y="522.2"/>
      <point x="76.8" y="522.2" type="curve" smooth="yes"/>
      <point x="115.6" y="522.2"/>
      <point x="139.0" y="511.6"/>
    </contour>
  </outline>
</glyph>
<glyph name="x" format="2">
  <advance width="571.0"/>
  <unicode hex="0078"/>
  <outline>
    <contour>
      <point x="496.6" y="377.2" type="curve" smooth="yes"/>
      <point x="345.4" y="286.8"/>
      <point x="206.0" y="124.4"/>
      <point x="162.8" y="-80.8" type="curve" smooth="yes"/>
      <point x="152.60000000000002" y="-127.0"/>
      <point x="126.4" y="-162.6"/>
      <point x="94.6" y="-162.6" type="curve" smooth="yes"/>
      <point x="68.8" y="-162.6"/>
      <point x="34.2" y="-149.6"/>
      <point x="34.2" y="-68.8" type="curve" smooth="yes"/>
      <point x="34.2" y="98.60000000000001"/>
      <point x="193.2" y="358.8"/>
      <point x="370.4" y="479.2" type="curve" smooth="yes"/>
      <point x="411.6" y="508.0"/>
      <point x="445.6" y="519.4"/>
      <point x="463.8" y="519.4" type="curve" smooth="yes"/>
      <point x="510.2" y="519.4"/>
      <point x="530.6" y="488.8"/>
      <point x="530.6" y="433.2" type="curve" smooth="yes"/>
      <point x="530.6" y="409.2"/>
      <point x="522.6" y="393.2"/>
    </contour>
    <contour>
      <point x="498.4" y="139.2" type="curve" smooth="yes"/>
      <point x="539.4" y="81.2"/>
      <point x="545.4" y="54.2"/>
      <point x="545.4" y="35.2" type="curve" smooth="yes"/>
      <point x="545.4" y="3.4000000000000004"/>
      <point x="520.2" y="-14.8"/>
      <point x="473.4" y="-14.8" type="curve" smooth="yes"/>
      <point x="452.6" y="-14.8"/>
      <point x="421.0" y="-6.4"/>
      <point x="387.2" y="40.6" type="curve" smooth="yes"/>
      <point x="314.2" y="142.2"/>
      <point x="165.6" y="286.0"/>
      <point x="85.4" y="363.4" type="curve" smooth="yes"/>
      <point x="54.8" y="392.2"/>
      <point x="37.2" y="413.6"/>
      <point x="37.2" y="450.8" type="curve" smooth="yes"/>
      <point x="37.2" y="479.4"/>
      <point x="55.400000000000006" y="519.0"/>
      <point x="91.6" y="519.0" type="curve" smooth="yes"/>
      <point x="106.4" y="519.0"/>
      <point x="129.8" y="519.2"/>
      <point x="169.8" y="487.0" type="curve" smooth="yes"/>
      <point x="240.0" y="432.0"/>
      <point x="434.2" y="227.4"/>
    </contour>
  </outline>
</glyph>
<glyph name="y" format="2">
  <advance width="611.0"/>
  <unicode hex="0079"/>
  <outline>
    <contour>
      <point x="215.8" y="431.8" type="curve" smooth="yes"/>
      <point x="216.6002972718" y="479.20453339492"/>
      <point x="192.84761904762001" y="517.8"/>
      <point x="115.4" y="517.8" type="curve" smooth="yes"/>
      <point x="75.1375" y="517.8"/>
      <point x="44.0" y="489.62035928144"/>
      <point x="44.0" y="343.0" type="curve" smooth="yes"/>
      <point x="44.0" y="151.11724137932"/>
      <point x="125.6" y="68.0"/>
      <point x="260.0" y="68.0" type="curve" smooth="yes"/>
      <point x="315.77173913044" y="68.0"/>
      <point x="394.2" y="93.4"/>
      <point x="448.6" y="218.2" type="curve" smooth="yes"/>
      <point x="461.4" y="247.0"/>
      <point x="401.19884549494" y="271.21423889572"/>
      <point x="401.8" y="252.6" type="curve" smooth="yes"/>
      <point x="402.4" y="144.6"/>
      <point x="410.0" y="92.4"/>
      <point x="410.0" y="-5.0" type="curve" smooth="yes"/>
      <point x="410.0" y="-65.1671641791"/>
      <point x="389.2" y="-106.0"/>
      <point x="314.6" y="-106.0" type="curve" smooth="yes"/>
      <point x="192.8" y="-106.0"/>
      <point x="173.4" y="-70.0"/>
      <point x="127.0" y="-70.0" type="curve" smooth="yes"/>
      <point x="96.4" y="-70.0"/>
      <point x="83.4" y="-85.8"/>
      <point x="83.4" y="-128.2" type="curve" smooth="yes"/>
      <point x="83.4" y="-204.8"/>
      <point x="149.4" y="-261.0"/>
      <point x="319.8" y="-261.0" type="curve" smooth="yes"/>
      <point x="431.4" y="-261.0"/>
      <point x="557.0" y="-185.4"/>
      <point x="557.0" y="-5.0" type="curve" smooth="yes"/>
      <point x="557.0" y="186.2"/>
      <point x="517.0" y="231.8"/>
      <point x="534.0" y="400.0" type="curve" smooth="yes"/>
      <point x="543.58006501156" y="492.8739617784"/>
      <point x="470.85" y="516.8"/>
      <point x="432.0" y="516.8" type="curve" smooth="yes"/>
      <point x="400.8" y="516.8"/>
      <point x="391.0" y="509.8"/>
      <point x="387.0" y="472.8" type="curve" smooth="yes"/>
      <point x="373.16353307572" y="330.31809418078"/>
      <point x="324.4" y="221.0"/>
      <point x="250.0" y="221.0" type="curve" smooth="yes"/>
      <point x="179.71011235956001" y="221.0"/>
      <point x="213.4002053689" y="342.00330301636"/>
    </contour>
  </outline>
</glyph>
<glyph name="z" format="2">
  <advance width="621.0"/>
  <unicode hex="007A"/>
  <outline>
    <contour>
      <point x="90.8" y="494.0" type="curve" smooth="yes"/>
      <point x="164.38800367574" y="506.54625114868"/>
      <point x="244.95089285714" y="518.4"/>
      <point x="319.0" y="518.4" type="curve" smooth="yes"/>
      <point x="471.0" y="518.4"/>
      <point x="517.0" y="446.2"/>
      <point x="517.0" y="374.0" type="curve" smooth="yes"/>
      <point x="517.0" y="310.77171717171996"/>
      <point x="441.06901782032" y="196.50956563832"/>
      <point x="184.60000000000002" y="130.0" type="curve"/>
      <point x="185.0" y="155.6" type="line"/>
      <point x="205.8" y="141.0"/>
      <point x="223.8" y="136.0"/>
      <point x="243.0" y="136.0" type="curve" smooth="yes"/>
      <point x="319.4" y="136.0"/>
      <point x="389.0" y="151.2"/>
      <point x="481.8" y="151.2" type="curve" smooth="yes"/>
      <point x="541.6" y="151.2"/>
      <point x="578.2" y="106.93777777778"/>
      <point x="578.2" y="54.0" type="curve" smooth="yes"/>
      <point x="578.2" y="22.0"/>
      <point x="560.2" y="0.0"/>
      <point x="519.8" y="0.0" type="curve" smooth="yes"/>
      <point x="438.2" y="0.0"/>
      <point x="313.8" y="-10.0"/>
      <point x="217.0" y="-10.0" type="curve" smooth="yes"/>
      <point x="81.2" y="-10.0"/>
      <point x="46.0" y="53.7"/>
      <point x="46.0" y="120.4" type="curve" smooth="yes"/>
      <point x="46.0" y="179.60000000000002"/>
      <point x="71.2" y="206.8"/>
      <point x="104.4" y="216.4" type="curve" smooth="yes"/>
      <point x="287.2816039232" y="272.08186311248"/>
      <point x="352.943021438" y="328.086042876"/>
      <point x="373.4" y="393.4" type="curve"/>
      <point x="410.4" y="343.2" type="line"/>
      <point x="382.26738990552" y="362.90007703664"/>
      <point x="363.8" y="370.0"/>
      <point x="323.0" y="370.0" type="curve" smooth="yes"/>
      <point x="201.8" y="370.0"/>
      <point x="145.6" y="344.8"/>
      <point x="112.8" y="344.8" type="curve" smooth="yes"/>
      <point x="78.9" y="344.8"/>
      <point x="44.2" y="390.69714285714"/>
      <point x="44.2" y="438.4" type="curve" smooth="yes"/>
      <point x="44.2" y="468.2"/>
      <point x="54.2" y="487.2"/>
    </contour>
  </outline>
</glyph>
